<?xml version="1.0" encoding="UTF-8"?>
<svg width="159px" height="42px" viewBox="0 0 159 42" version="1.1" xmlns="http://www.w3.org/2000/svg" xmlns:xlink="http://www.w3.org/1999/xlink">
    <!-- Generator: Sketch 50.2 (55047) - http://www.bohemiancoding.com/sketch -->
    <title>Group</title>
    <desc>Created with Sketch.</desc>
    <defs></defs>
    <g id="Page-1" stroke="none" stroke-width="1" fill="none" fill-rule="evenodd">
        <g id="Group">
            <rect id="Rectangle" fill="#101010" x="0" y="0" width="159" height="42" rx="9"></rect>
            <g id="studio" transform="translate(43.000000, 8.000000)" fill-rule="nonzero">
                <polygon id="Shape" fill="#FF3366" points="104.9 19.1 107.6 19.1 107.6 21.8 104.9 21.8"></polygon>
                <path d="M48.1,17.5 C48.1,13.6 39.1,16.7 39.1,10.2 C39.1,7.6 41.3,5.4 44.9,5.4 C48.7,5.4 50.7,7.7 50.7,10.7 L48,10.7 C48,9.1 46.9,7.8 44.8,7.8 C42.9,7.8 41.8,8.6 41.8,10 C41.8,13.5 50.9,10.8 50.9,17.2 C50.9,20.1 48.4,22 44.5,22 C40.2,22 38.6,19.3 38.5,16.7 L41.2,16.7 C41.3,18.4 42.5,19.6 44.6,19.6 C46.8,19.7 48.1,18.9 48.1,17.5 Z M56.7,21.9 L54,21.9 L54,12.3 L52.2,12.3 L52.2,10.2 L54,10.2 L54,7.1 L56.7,7.1 L56.7,10.2 L58.7,10.2 L58.7,12.3 L56.7,12.3 L56.7,21.9 Z M67.9,17 L67.9,10.1 L70.6,10.1 L70.6,16.9 C70.6,19.9 69.2,22.1 65.4,22.1 C61.6,22.1 60.2,19.9 60.2,16.9 L60.2,10.1 L62.9,10.1 L62.9,17 C62.9,18.8 63.8,19.7 65.4,19.7 C67,19.7 67.9,18.9 67.9,17 Z M81.5,4.9 L81.5,11.7 C80.8,10.7 79.6,9.9 77.7,9.9 C74.2,9.9 72.3,12.7 72.3,16.1 C72.3,19.4 74.3,22.2 77.7,22.2 C79.5,22.2 80.9,21.5 81.7,20.3 L81.7,22 L84.2,22 L84.2,5 L81.5,5 L81.5,4.9 Z M78.3,19.8 C76.3,19.8 75,18.1 75,16 C75,13.8 76.3,12.2 78.3,12.2 C80.3,12.2 81.6,13.8 81.6,16 C81.6,18.1 80.4,19.8 78.3,19.8 Z M86.4,6.5 C86.4,5.5 87.1,4.8 88.1,4.8 C89.1,4.8 89.8,5.5 89.8,6.5 C89.8,7.5 89.1,8.1 88.1,8.1 C87.1,8.2 86.4,7.5 86.4,6.5 Z M86.7,10.1 L89.4,10.1 L89.4,21.8 L86.7,21.8 L86.7,10.1 Z M97.2,9.9 C93.4,9.9 91.1,12.8 91.1,16.1 L91.1,16.5 C91.2,19.8 93.9,22.4 97.2,22.3 C101,22.3 103.3,19.5 103.3,16.2 L103.3,15.9 C103.2,12.4 100.5,9.8 97.2,9.9 Z M97.2,19.8 C95.2,19.8 93.8,18.3 93.8,16 C93.8,13.7 95.3,12.2 97.2,12.2 C99.2,12.2 100.6,13.7 100.6,16 C100.6,18.3 99.2,19.8 97.2,19.8 Z M15.6,12 L16.1,9.6 L11.8,9.6 L11.2,11.7 L13.2,11.7 L12,16.3 C11.2,18.1 9.7,18.3 9.2,18.3 L9,18.3 C8.6,18.2 8.4,18.1 8.4,17.6 C8.4,17.3 8.4,17 8.6,16.5 L10.5,9.5 L5.7,9.5 L5.1,11.6 L7.1,11.6 L5.8,16.5 C5.7,16.9 5.7,17.3 5.7,17.7 C5.7,19.1 6.5,20 8.2,20 C9.6,20 10.8,19.2 11.6,18 L11,19.9 L13.8,19.9 L15.4,13.9 C15.8,12.4 16.6,11.6 17.8,11.6 C18.7,11.6 19.3,12.1 19.3,13 C19.3,13.2 19.3,13.5 19.2,13.8 L18.4,16.6 C18.3,17 18.2,17.4 18.2,17.8 C18.2,19.1 19,20.1 20.8,20.1 C22.3,20.1 23.5,19.2 24.1,17.1 L23,16.6 C22.4,18 22,18.3 21.6,18.3 C21.2,18.3 21,18.1 21,17.6 C21,17.4 21,17.1 21.1,16.9 L21.9,14.2 C22.1,13.6 22.2,13 22.2,12.5 C22.2,10.5 20.9,9.4 19.3,9.4 C17.8,9.4 16.3,10.7 15.6,12 Z M9.3,8.2 C10.2,8.2 11,7.5 11,6.6 C11,5.7 10.2,5 9.3,5 C8.4,5 7.6,5.8 7.6,6.6 C7.6,7.4 8.4,8.2 9.3,8.2 C9.3,8.2 8.4,8.2 9.3,8.2 Z M25.5,0 C26.9,0 28,1.1 28,2.4 L28,23.7 C28,25 26.9,26.1 25.5,26.1 L2.5,26.1 C1.1,26 0,24.9 0,23.6 L0,2.4 C0,1.1 1.1,0 2.5,0 L25.5,0 C25.5,0 24,0 25.5,0 Z" id="Shape" fill="#FFFFFF"></path>
            </g>
            <path d="M9.1200001,12.4 L10.3440001,12.4 L12.2000001,16.008 L14.0400001,12.4 L15.2640001,12.4 L15.2640001,18 L14.2800001,18 L14.2800001,13.984 L12.5360001,17.424 L11.8480001,17.424 L10.0960001,13.984 L10.0960001,18 L9.1200001,18 L9.1200001,12.4 Z M21.1840001,18 L20.6880001,16.816 L17.9520001,16.816 L17.4560001,18 L16.3440001,18 L18.8000001,12.4 L19.9120001,12.4 L22.3360001,18 L21.1840001,18 Z M18.3360001,15.896 L20.3040001,15.896 L19.3280001,13.544 L18.3360001,15.896 Z M25.744,12.4 C26.3040028,12.4 26.8053312,12.5186655 27.248,12.756 C27.6906689,12.9933345 28.0373321,13.3253312 28.288,13.752 C28.538668,14.1786688 28.664,14.6613306 28.664,15.2 C28.664,15.7386694 28.5373346,16.2199979 28.284,16.644 C28.0306654,17.0680021 27.6800023,17.3999988 27.232,17.64 C26.7839978,17.8800012 26.2746696,18 25.704,18 L23.416,18 L23.416,12.4 L25.744,12.4 Z M25.768,17.056 C26.1093351,17.056 26.417332,16.9773341 26.692,16.82 C26.9666681,16.6626659 27.1813326,16.4440014 27.336,16.164 C27.4906675,15.8839986 27.568,15.5653351 27.568,15.208 C27.568,14.8506649 27.4880008,14.5293348 27.328,14.244 C27.1679992,13.9586652 26.9480014,13.7373341 26.668,13.58 C26.3879986,13.4226659 26.0746684,13.344 25.728,13.344 L24.488,13.344 L24.488,17.056 L25.768,17.056 Z M30,12.4 L34.104,12.4 L34.104,13.336 L31.072,13.336 L31.072,14.72 L33.792,14.72 L33.792,15.656 L31.072,15.656 L31.072,17.064 L34.2,17.064 L34.2,18 L30,18 L30,12.4 Z M18.8000001,25.4 L19.9120001,25.4 L18.0160001,31 L16.9040001,31 L15.6240001,26.752 L14.3200001,31 L13.2240001,31 L11.3360001,25.4 L12.4880001,25.4 L13.8080001,29.84 L15.1200001,25.4 L16.1760001,25.4 L17.4960001,29.856 L18.8000001,25.4 Z M21.0160001,25.4 L22.0880001,25.4 L22.0880001,31 L21.0160001,31 L21.0160001,25.4 Z M23.24,25.4 L27.808,25.4 L27.808,26.352 L26.064,26.352 L26.064,31 L24.984,31 L24.984,26.352 L23.24,26.352 L23.24,25.4 Z M28.968,25.4 L30.04,25.4 L30.04,27.792 L32.832,27.792 L32.832,25.4 L33.904,25.4 L33.904,31 L32.832,31 L32.832,28.728 L30.04,28.728 L30.04,31 L28.968,31 L28.968,25.4 Z" id="MADE-WITH" fill="#FFFFFF"></path>
        </g>
    </g>
</svg>