<?xml version="1.0" encoding="UTF-8"?>
<svg width="112px" height="112px" viewBox="0 0 112 112" version="1.1" xmlns="http://www.w3.org/2000/svg" xmlns:xlink="http://www.w3.org/1999/xlink">
    <!-- Generator: Sketch 48.2 (47327) - http://www.bohemiancoding.com/sketch -->
    <title>collaboration</title>
    <desc>Created with Sketch.</desc>
    <defs></defs>
    <g id="Page-1" stroke="none" stroke-width="1" fill="none" fill-rule="evenodd">
        <g id="collaboration" fill="#1DE9B6" fill-rule="nonzero">
            <path d="M33.9,22 C29,22 25,26 25,30.9 C25,35.8 29,39.8 33.9,39.8 C38.8,39.8 42.8,35.8 42.8,30.9 C42.8,26 38.8,22 33.9,22 Z M33.9,36.5 C30.8,36.5 28.3,34 28.3,30.9 C28.3,27.8 30.8,25.3 33.9,25.3 C37,25.3 39.5,27.8 39.5,30.9 C39.5,34 37,36.5 33.9,36.5 Z M33.9,47.3 C29,47.3 25,51.3 25,56.2 C25,61.1 29,65.1 33.9,65.1 C38.8,65.1 42.8,61.1 42.8,56.2 C42.8,51.3 38.8,47.3 33.9,47.3 Z M33.9,61.8 C30.8,61.8 28.3,59.3 28.3,56.2 C28.3,53.1 30.8,50.6 33.9,50.6 C37,50.6 39.5,53.1 39.5,56.2 C39.5,59.3 37,61.8 33.9,61.8 Z M42.8,81.5 C42.8,76.6 38.8,72.6 33.9,72.6 C29,72.6 25,76.6 25,81.5 C25,86.4 29,90.4 33.9,90.4 C38.8,90.4 42.8,86.4 42.8,81.5 Z M28.3,81.5 C28.3,78.4 30.8,75.9 33.9,75.9 C37,75.9 39.5,78.4 39.5,81.5 C39.5,84.6 37,87.1 33.9,87.1 C30.8,87.1 28.3,84.6 28.3,81.5 Z M87.8,32.1 L50.1,32.1 L50.1,28.8 L87.8,28.8 L87.8,32.1 Z M87.3,57.9 L49.6,57.9 L49.6,54.6 L87.3,54.6 L87.3,57.9 Z M87.3,83.2 L49.6,83.2 L49.6,79.9 L87.3,79.9 L87.3,83.2 Z" id="Shape"></path>
        </g>
    </g>
</svg>