<?xml version="1.0" encoding="UTF-8"?>
<svg width="112px" height="112px" viewBox="0 0 112 112" version="1.1" xmlns="http://www.w3.org/2000/svg" xmlns:xlink="http://www.w3.org/1999/xlink">
    <!-- Generator: Sketch 48.2 (47327) - http://www.bohemiancoding.com/sketch -->
    <title>facilitation</title>
    <desc>Created with Sketch.</desc>
    <defs></defs>
    <g id="Page-1" stroke="none" stroke-width="1" fill="none" fill-rule="evenodd">
        <g id="facilitation" fill="#1DE9B6">
            <g id="Group" transform="translate(39.000000, 52.000000)">
                <path d="M19.00002,17.0148148 C19.00002,18.4552444 18.9261992,21.6055044 27.7415852,24.3097414 C31.7751054,25.5470774 30.7297302,30.2276362 30.7297302,32 L34.0729756,32 C34.4104298,26.2074074 32.4981892,22.3037037 28.7861926,21.1703704 C20.9122607,19.0296296 23.0494708,16.2592593 22.3745623,15 C22.3745623,15 19.00002,17.0148148 19.00002,17.0148148 Z" id="Shape" fill-rule="nonzero"></path>
                <path d="M2.00302652e-05,17.0148148 C2.00302652e-05,18.4552444 -0.0738007655,21.6055044 8.74158517,24.3097414 C12.7751054,25.5470774 11.7297302,30.2276362 11.7297302,32 L15.0729756,32 C15.4104298,26.2074074 13.4981892,22.3037037 9.78619265,21.1703704 C1.91226066,19.0296296 4.04947077,16.2592593 3.37456231,15 C3.37456231,15 2.00302651e-05,17.0148148 2.00302652e-05,17.0148148 Z" id="Shape" fill-rule="nonzero" transform="translate(7.555566, 23.500000) scale(-1, 1) translate(-7.555566, -23.500000) "></path>
                <path d="M16.7,0 C17.2,0 17.7,0 18.2,0.1 C18.7992224,0.1 20.7529322,0.936494097 21.4,1.2 C24.4,2.9 26.4,6.1 26.4,9.7 C26.4,15.1 22,19.4 16.7,19.4 C11.3,19.4 7,15 7,9.7 C7,4.3 11.4,0 16.7,0 Z M16.7,16.1 C20.2,16.1 23,13.2 23.1,9.7 C23.1,6.2 20.2,3.3 16.7,3.3 C13.2,3.3 10.3,6.2 10.3,9.7 C10.3,13.2 13.2,16.1 16.7,16.1 Z" id="Combined-Shape" transform="translate(16.700000, 9.700000) rotate(-180.000000) translate(-16.700000, -9.700000) "></path>
            </g>
            <g id="Group-2" transform="translate(18.000000, 30.000000)">
                <path d="M61.00002,17.0148148 C61.00002,18.4552444 60.9261992,21.6055044 69.7415852,24.3097414 C73.7751054,25.5470774 72.7297302,30.2276362 72.7297302,32 L76.0729756,32 C76.4104298,26.2074074 74.4981892,22.3037037 70.7861926,21.1703704 C62.9122607,19.0296296 65.0494708,16.2592593 64.3745623,15 C64.3745623,15 61.00002,17.0148148 61.00002,17.0148148 Z" id="Shape" fill-rule="nonzero"></path>
                <path d="M47.760651,24.5388256 L45.3635833,22.1417579 C45.946833,21.7171475 46.6017272,21.3911786 47.3249385,21.1703704 C55.1988705,19.0296296 53.0616604,16.2592593 53.7365688,15 C53.7365688,15 57.1111111,17.0148148 57.1111111,17.0148148 C57.1111111,18.4552444 57.1849319,21.6055044 48.369546,24.3097414 C48.1521463,24.3764317 47.9495009,24.4531245 47.760651,24.5388256 Z" id="Combined-Shape" fill-rule="nonzero"></path>
                <path d="M30.110559,21.780314 L27.6038914,24.2869816 C18.9271524,21.5878502 19.0000199,18.4512052 19.0000199,17.0148148 C19.0000199,17.0148148 22.3497449,15 22.3497449,15 C23.0196899,16.2592593 20.8981974,19.0296296 28.7142225,21.1703704 C29.2127377,21.3237029 29.6785518,21.5277451 30.110559,21.780314 Z" id="Combined-Shape" fill-rule="nonzero"></path>
                <path d="M1.98829574e-05,17.0148148 C1.98829574e-05,18.4552444 -0.0732580157,21.6055044 8.67729731,24.3097414 C12.681154,25.5470774 11.6434668,30.2276362 11.6434668,32 L14.962125,32 C15.2970975,26.2074074 13.39892,22.3037037 9.71422247,21.1703704 C1.8981974,19.0296296 4.01968992,16.2592593 3.34974491,15 C3.34974491,15 1.98829574e-05,17.0148148 1.98829574e-05,17.0148148 Z" id="Shape" fill-rule="nonzero" transform="translate(7.500000, 23.500000) scale(-1, 1) translate(-7.500000, -23.500000) "></path>
                <path d="M58.7,0 C59.2,0 59.7,0 60.2,0.1 C60.7992224,0.1 62.7529322,0.936494097 63.4,1.2 C66.4,2.9 68.4,6.1 68.4,9.7 C68.4,15.1 64,19.4 58.7,19.4 C53.3,19.4 49,15 49,9.7 C49,4.3 53.4,0 58.7,0 Z M58.7,16.1 C62.2,16.1 65,13.2 65.1,9.7 C65.1,6.2 62.2,3.3 58.7,3.3 C55.2,3.3 52.3,6.2 52.3,9.7 C52.3,13.2 55.2,16.1 58.7,16.1 Z" id="Combined-Shape-Copy" transform="translate(58.700000, 9.700000) rotate(-180.000000) translate(-58.700000, -9.700000) "></path>
                <path d="M16.7,0 C17.2,0 17.7,0 18.2,0.1 C18.7992224,0.1 20.7529322,0.936494097 21.4,1.2 C24.4,2.9 26.4,6.1 26.4,9.7 C26.4,15.1 22,19.4 16.7,19.4 C11.3,19.4 7,15 7,9.7 C7,4.3 11.4,0 16.7,0 Z M16.7,16.1 C20.2,16.1 23,13.2 23.1,9.7 C23.1,6.2 20.2,3.3 16.7,3.3 C13.2,3.3 10.3,6.2 10.3,9.7 C10.3,13.2 13.2,16.1 16.7,16.1 Z" id="Combined-Shape-Copy-2" transform="translate(16.700000, 9.700000) rotate(-180.000000) translate(-16.700000, -9.700000) "></path>
            </g>
        </g>
    </g>
</svg>