<?xml version="1.0" encoding="UTF-8"?>
<svg width="112px" height="112px" viewBox="0 0 112 112" version="1.1" xmlns="http://www.w3.org/2000/svg" xmlns:xlink="http://www.w3.org/1999/xlink">
    <!-- Generator: Sketch 48.2 (47327) - http://www.bohemiancoding.com/sketch -->
    <title>iteration</title>
    <desc>Created with Sketch.</desc>
    <defs></defs>
    <g id="Page-1" stroke="none" stroke-width="1" fill="none" fill-rule="evenodd">
        <g id="iteration" fill="#1DE9B6" fill-rule="nonzero">
            <path d="M77.8,63.4 C72.5,63.4 68.1,67.7 68.1,73.1 C68.1,78.4 72.4,82.8 77.8,82.8 C83.1,82.8 87.5,78.5 87.5,73.1 C87.5,69.5 85.5,66.3 82.5,64.6 C82.7,63.2 82.8,61.7 82.8,60.3 C82.8,51.1 78.2,42.6 70.4,37.5 L68.6,40.3 C75.4,44.7 79.5,52.2 79.5,60.3 C79.5,61.4 79.4,62.4 79.3,63.5 C78.8,63.4 78.3,63.4 77.8,63.4 Z M77.8,79.5 C74.3,79.5 71.4,76.6 71.4,73.1 C71.4,69.6 74.3,66.7 77.8,66.7 C81.3,66.7 84.2,69.6 84.2,73.1 C84.1,76.6 81.3,79.5 77.8,79.5 Z M67.4,85 L66,82 C62.8,83.6 59.3,84.4 55.7,84.4 C50.4,84.4 45.3,82.6 41.1,79.4 C42.5,77.7 43.4,75.5 43.4,73.2 C43.4,67.9 39.1,63.5 33.7,63.5 C28.4,63.5 24,67.8 24,73.2 C24,78.5 28.3,82.9 33.7,82.9 C35.4,82.9 37.1,82.4 38.5,81.6 C43.3,85.6 49.4,87.7 55.7,87.7 C59.8,87.7 63.7,86.8 67.4,85 Z M27.3,73.1 C27.3,69.6 30.2,66.7 33.7,66.7 C37.2,66.7 40.1,69.6 40.1,73.1 C40.1,76.6 37.2,79.5 33.7,79.5 C30.1,79.5 27.3,76.6 27.3,73.1 Z M28.5,59.3 L31.8,59.4 C32.1,51.3 36.4,44 43.3,39.8 C44.2,39.2 45.2,38.7 46.2,38.3 C47.6,41.8 51.1,44.4 55.2,44.4 C60.5,44.4 64.9,40.1 64.9,34.7 C64.9,29.4 60.6,25 55.2,25 C49.9,25 45.5,29.3 45.5,34.7 C45.5,34.8 45.5,34.9 45.5,35 C44.1,35.5 42.8,36.2 41.6,37 C33.8,41.7 28.9,50 28.5,59.3 Z M55.3,28.3 C58.8,28.3 61.7,31.2 61.7,34.7 C61.7,38.2 58.8,41.1 55.3,41.1 C51.8,41.1 48.9,38.2 48.9,34.7 C48.9,31.1 51.8,28.3 55.3,28.3 Z" id="Shape"></path>
        </g>
    </g>
</svg>