<?xml version="1.0" encoding="UTF-8"?>
<svg width="685px" height="528px" viewBox="0 0 685 528" version="1.1" xmlns="http://www.w3.org/2000/svg" xmlns:xlink="http://www.w3.org/1999/xlink">
    <!-- Generator: Sketch 46.2 (44496) - http://www.bohemiancoding.com/sketch -->
    <title>graphic-tags</title>
    <desc>Created with Sketch.</desc>
    <defs>
        <rect id="path-1" x="0" y="0" width="189" height="43" rx="5"></rect>
        <filter x="-7.9%" y="-20.9%" width="115.9%" height="169.8%" filterUnits="objectBoundingBox" id="filter-2">
            <feOffset dx="0" dy="6" in="SourceAlpha" result="shadowOffsetOuter1"></feOffset>
            <feGaussianBlur stdDeviation="4" in="shadowOffsetOuter1" result="shadowBlurOuter1"></feGaussianBlur>
            <feColorMatrix values="0 0 0 0 0   0 0 0 0 0   0 0 0 0 0  0 0 0 0.25 0" type="matrix" in="shadowBlurOuter1"></feColorMatrix>
        </filter>
        <rect id="path-3" x="0" y="0" width="189" height="43" rx="5"></rect>
        <filter x="-7.9%" y="-20.9%" width="115.9%" height="169.8%" filterUnits="objectBoundingBox" id="filter-4">
            <feOffset dx="0" dy="6" in="SourceAlpha" result="shadowOffsetOuter1"></feOffset>
            <feGaussianBlur stdDeviation="4" in="shadowOffsetOuter1" result="shadowBlurOuter1"></feGaussianBlur>
            <feColorMatrix values="0 0 0 0 0   0 0 0 0 0   0 0 0 0 0  0 0 0 0.25 0" type="matrix" in="shadowBlurOuter1"></feColorMatrix>
        </filter>
        <rect id="path-5" x="0" y="0" width="246" height="56" rx="5"></rect>
        <filter x="-6.1%" y="-16.1%" width="112.2%" height="153.6%" filterUnits="objectBoundingBox" id="filter-6">
            <feOffset dx="0" dy="6" in="SourceAlpha" result="shadowOffsetOuter1"></feOffset>
            <feGaussianBlur stdDeviation="4" in="shadowOffsetOuter1" result="shadowBlurOuter1"></feGaussianBlur>
            <feColorMatrix values="0 0 0 0 0   0 0 0 0 0   0 0 0 0 0  0 0 0 0.25 0" type="matrix" in="shadowBlurOuter1"></feColorMatrix>
        </filter>
        <rect id="path-7" x="0" y="0" width="246" height="56" rx="5"></rect>
        <filter x="-6.1%" y="-16.1%" width="112.2%" height="153.6%" filterUnits="objectBoundingBox" id="filter-8">
            <feOffset dx="0" dy="6" in="SourceAlpha" result="shadowOffsetOuter1"></feOffset>
            <feGaussianBlur stdDeviation="4" in="shadowOffsetOuter1" result="shadowBlurOuter1"></feGaussianBlur>
            <feColorMatrix values="0 0 0 0 0   0 0 0 0 0   0 0 0 0 0  0 0 0 0.25 0" type="matrix" in="shadowBlurOuter1"></feColorMatrix>
        </filter>
        <rect id="path-9" x="0" y="0" width="351" height="80" rx="5"></rect>
        <filter x="-4.3%" y="-11.2%" width="108.5%" height="137.5%" filterUnits="objectBoundingBox" id="filter-10">
            <feOffset dx="0" dy="6" in="SourceAlpha" result="shadowOffsetOuter1"></feOffset>
            <feGaussianBlur stdDeviation="4" in="shadowOffsetOuter1" result="shadowBlurOuter1"></feGaussianBlur>
            <feColorMatrix values="0 0 0 0 0   0 0 0 0 0   0 0 0 0 0  0 0 0 0.25 0" type="matrix" in="shadowBlurOuter1"></feColorMatrix>
        </filter>
        <rect id="path-11" x="0" y="0" width="333" height="76.0108696" rx="5"></rect>
        <filter x="-4.5%" y="-11.8%" width="109.0%" height="139.5%" filterUnits="objectBoundingBox" id="filter-12">
            <feOffset dx="0" dy="6" in="SourceAlpha" result="shadowOffsetOuter1"></feOffset>
            <feGaussianBlur stdDeviation="4" in="shadowOffsetOuter1" result="shadowBlurOuter1"></feGaussianBlur>
            <feColorMatrix values="0 0 0 0 0   0 0 0 0 0   0 0 0 0 0  0 0 0 0.25 0" type="matrix" in="shadowBlurOuter1"></feColorMatrix>
        </filter>
        <rect id="path-13" x="207" y="212" width="219" height="80" rx="5"></rect>
        <filter x="-6.8%" y="-11.2%" width="113.7%" height="137.5%" filterUnits="objectBoundingBox" id="filter-14">
            <feOffset dx="0" dy="6" in="SourceAlpha" result="shadowOffsetOuter1"></feOffset>
            <feGaussianBlur stdDeviation="4" in="shadowOffsetOuter1" result="shadowBlurOuter1"></feGaussianBlur>
            <feColorMatrix values="0 0 0 0 0   0 0 0 0 0   0 0 0 0 0  0 0 0 0.25 0" type="matrix" in="shadowBlurOuter1"></feColorMatrix>
        </filter>
    </defs>
    <g id="Page-1" stroke="none" stroke-width="1" fill="none" fill-rule="evenodd">
        <g id="graphic-tags">
            <g id="instance-example" transform="translate(464.000000, 307.000000)">
                <g id="Rectangle-32">
                    <use fill="black" fill-opacity="1" filter="url(#filter-2)" xlink:href="#path-1"></use>
                    <use fill="#FFFFFF" fill-rule="evenodd" xlink:href="#path-1"></use>
                </g>
                <circle id="Oval-3" stroke="#D8D8D8" stroke-width="2" fill="#FFFFFF" cx="19" cy="21" r="10"></circle>
                <rect id="Rectangle-33" fill="#D8D8D8" x="39" y="13" width="137" height="5"></rect>
                <rect id="Rectangle-33-Copy" fill="#D8D8D8" x="39" y="24" width="55" height="5"></rect>
                <rect id="Rectangle-33-Copy-2" fill="#FF3D7B" x="97" y="24" width="37" height="5"></rect>
                <g id="Group-6" transform="translate(13.000000, 18.000000)" fill="#D8D8D8">
                    <ellipse id="Oval-11-Copy-53" cx="9.075" cy="2" rx="1.925" ry="2"></ellipse>
                    <ellipse id="Oval-11-Copy-55" cx="1.925" cy="2" rx="1.925" ry="2"></ellipse>
                </g>
                <path d="M19.5,26 C21.4329966,26 23,24.9869404 23,24.2705991 C23,23.5542578 21.4329966,24.4867742 19.5,24.4867742 C17.5670034,24.4867742 16,23.5542578 16,24.2705991 C16,24.9869404 17.5670034,26 19.5,26 Z" id="Oval-18" fill="#D8D8D8"></path>
            </g>
            <g id="instance-example-copy-2" transform="translate(8.000000, 302.000000)">
                <g id="Rectangle-32">
                    <use fill="black" fill-opacity="1" filter="url(#filter-4)" xlink:href="#path-3"></use>
                    <use fill="#FFFFFF" fill-rule="evenodd" xlink:href="#path-3"></use>
                </g>
                <circle id="Oval-3" stroke="#D8D8D8" stroke-width="2" fill="#FFFFFF" cx="19" cy="21" r="10"></circle>
                <rect id="Rectangle-33" fill="#D8D8D8" x="39" y="13" width="137" height="5"></rect>
                <rect id="Rectangle-33-Copy" fill="#D8D8D8" x="39" y="24" width="55" height="5"></rect>
                <rect id="Rectangle-33-Copy-2" fill="#FF3D7B" x="97" y="24" width="37" height="5"></rect>
                <g id="Group-6" transform="translate(13.000000, 18.000000)" fill="#D8D8D8">
                    <ellipse id="Oval-11-Copy-53" cx="9.075" cy="2" rx="1.925" ry="2"></ellipse>
                    <ellipse id="Oval-11-Copy-55" cx="1.925" cy="2" rx="1.925" ry="2"></ellipse>
                </g>
                <path d="M19.5,26 C21.4329966,26 23,24.9869404 23,24.2705991 C23,23.5542578 21.4329966,24.4867742 19.5,24.4867742 C17.5670034,24.4867742 16,23.5542578 16,24.2705991 C16,24.9869404 17.5670034,26 19.5,26 Z" id="Oval-18" fill="#D8D8D8"></path>
            </g>
            <g id="instance-example" transform="translate(56.000000, 42.000000)">
                <g id="Rectangle-32">
                    <use fill="black" fill-opacity="1" filter="url(#filter-6)" xlink:href="#path-5"></use>
                    <use fill="#FFFFFF" fill-rule="evenodd" xlink:href="#path-5"></use>
                </g>
                <circle id="Oval-3" stroke="#D8D8D8" stroke-width="2" fill="#FFFFFF" cx="24.5" cy="28.5" r="13.5"></circle>
                <rect id="Rectangle-33" fill="#D8D8D8" x="51" y="18" width="178" height="7"></rect>
                <rect id="Rectangle-33-Copy" fill="#D8D8D8" x="51" y="31" width="72" height="7"></rect>
                <rect id="Rectangle-33-Copy-2" fill="#FF3D7B" x="127" y="31" width="48" height="7"></rect>
                <g id="Group-6" transform="translate(18.000000, 23.000000)" fill="#D8D8D8">
                    <ellipse id="Oval-11-Copy-53" cx="11.55" cy="2.5" rx="2.45" ry="2.5"></ellipse>
                    <ellipse id="Oval-11-Copy-55" cx="2.45" cy="2.5" rx="2.45" ry="2.5"></ellipse>
                </g>
                <path d="M24.5,34 C26.9852814,34 29,32.4804106 29,31.4058986 C29,30.3313866 26.9852814,31.7301613 24.5,31.7301613 C22.0147186,31.7301613 20,30.3313866 20,31.4058986 C20,32.4804106 22.0147186,34 24.5,34 Z" id="Oval-18" fill="#D8D8D8"></path>
            </g>
            <g id="instance-example-copy" transform="translate(431.000000, 133.000000)">
                <g id="Rectangle-32">
                    <use fill="black" fill-opacity="1" filter="url(#filter-8)" xlink:href="#path-7"></use>
                    <use fill="#FFFFFF" fill-rule="evenodd" xlink:href="#path-7"></use>
                </g>
                <circle id="Oval-3" stroke="#D8D8D8" stroke-width="2" fill="#FFFFFF" cx="24.5" cy="28.5" r="13.5"></circle>
                <rect id="Rectangle-33" fill="#D8D8D8" x="51" y="18" width="178" height="7"></rect>
                <rect id="Rectangle-33-Copy" fill="#D8D8D8" x="51" y="31" width="72" height="7"></rect>
                <rect id="Rectangle-33-Copy-2" fill="#FF3D7B" x="127" y="31" width="48" height="7"></rect>
                <g id="Group-6" transform="translate(18.000000, 23.000000)" fill="#D8D8D8">
                    <ellipse id="Oval-11-Copy-53" cx="11.55" cy="2.5" rx="2.45" ry="2.5"></ellipse>
                    <ellipse id="Oval-11-Copy-55" cx="2.45" cy="2.5" rx="2.45" ry="2.5"></ellipse>
                </g>
                <path d="M24.5,34 C26.9852814,34 29,32.4804106 29,31.4058986 C29,30.3313866 26.9852814,31.7301613 24.5,31.7301613 C22.0147186,31.7301613 20,30.3313866 20,31.4058986 C20,32.4804106 22.0147186,34 24.5,34 Z" id="Oval-18" fill="#D8D8D8"></path>
            </g>
            <g id="instance-example" transform="translate(237.000000, 2.000000)">
                <g id="Rectangle-32">
                    <use fill="black" fill-opacity="1" filter="url(#filter-10)" xlink:href="#path-9"></use>
                    <use fill="#FFFFFF" fill-rule="evenodd" xlink:href="#path-9"></use>
                </g>
                <circle id="Oval-3" stroke="#D8D8D8" stroke-width="2" fill="#FFFFFF" cx="35" cy="40" r="19"></circle>
                <rect id="Rectangle-33" fill="#D8D8D8" x="73" y="25" width="254" height="10"></rect>
                <rect id="Rectangle-33-Copy" fill="#D8D8D8" x="73" y="45" width="103" height="10"></rect>
                <rect id="Rectangle-33-Copy-2" fill="#FF3D7B" x="181" y="45" width="68" height="10"></rect>
                <g id="Group-6" transform="translate(25.000000, 33.000000)" fill="#D8D8D8">
                    <circle id="Oval-11-Copy-53" cx="16.5" cy="3.5" r="3.5"></circle>
                    <circle id="Oval-11-Copy-55" cx="3.5" cy="3.5" r="3.5"></circle>
                </g>
                <path d="M35.5,49 C39.0898509,49 42,46.9738808 42,45.5411982 C42,44.1085155 39.0898509,45.9735484 35.5,45.9735484 C31.9101491,45.9735484 29,44.1085155 29,45.5411982 C29,46.9738808 31.9101491,49 35.5,49 Z" id="Oval-18" fill="#D8D8D8"></path>
            </g>
            <g id="instance-example" transform="translate(241.000000, 426.000000)">
                <g id="Rectangle-32">
                    <use fill="black" fill-opacity="1" filter="url(#filter-12)" xlink:href="#path-11"></use>
                    <use fill="#FFFFFF" fill-rule="evenodd" xlink:href="#path-11"></use>
                </g>
                <circle id="Oval-3" stroke="#D8D8D8" stroke-width="2" fill="#FFFFFF" cx="33.3" cy="38.3673913" r="18.0978261"></circle>
                <rect id="Rectangle-33" fill="#D8D8D8" x="69.4956522" y="23.8891304" width="241.063043" height="9.41086957"></rect>
                <rect id="Rectangle-33-Copy" fill="#D8D8D8" x="69.4956522" y="42.7108696" width="97.7282609" height="9.41086957"></rect>
                <rect id="Rectangle-33-Copy-2" fill="#FF3D7B" x="171.567391" y="42.7108696" width="64.4282609" height="9.41086957"></rect>
                <g id="Group-6" transform="translate(23.889130, 31.128261)" fill="#D8D8D8">
                    <ellipse id="Oval-11-Copy-53" cx="15.5279348" cy="3.2576087" rx="3.29380435" ry="3.2576087"></ellipse>
                    <ellipse id="Oval-11-Copy-55" cx="3.29380435" cy="3.2576087" rx="3.29380435" ry="3.2576087"></ellipse>
                </g>
                <path d="M33.6619565,46.3304348 C37.0603087,46.3304348 39.8152174,44.4970171 39.8152174,43.2005951 C39.8152174,41.904173 37.0603087,43.591825 33.6619565,43.591825 C30.2636044,43.591825 27.5086957,41.904173 27.5086957,43.2005951 C27.5086957,44.4970171 30.2636044,46.3304348 33.6619565,46.3304348 Z" id="Oval-18" fill="#D8D8D8"></path>
            </g>
            <path d="M448.814815,47.8446379 C448.814815,47.8446379 317.623544,110.697092 328.449825,222.844638" id="Line-Copy-2" stroke="#FF3D7B" stroke-width="3" opacity="0.300000012" transform="translate(388.314815, 135.344638) rotate(6.000000) translate(-388.314815, -135.344638) "></path>
            <path d="M429.857139,281.85184 C429.857139,281.85184 304.100957,335.886975 330.499376,475.85184" id="Line-Copy-3" stroke="#FF3D7B" stroke-width="3" opacity="0.300000012" transform="translate(378.357139, 378.851840) scale(1, -1) rotate(6.000000) translate(-378.357139, -378.851840) "></path>
            <path d="M577.771405,245.411676 C577.771405,245.411676 578.629982,327.988009 430.771518,344.411676" id="Line-Copy-3" stroke="#FF3D7B" stroke-width="3" opacity="0.300000012" transform="translate(504.271518, 294.911676) scale(1, -1) rotate(6.000000) translate(-504.271518, -294.911676) "></path>
            <path d="M580.763186,161.568469 C580.763186,161.568469 581.639284,244.144801 430.763301,260.568469" id="Line-Copy-3" stroke="#FF3D7B" stroke-width="3" opacity="0.300000012" transform="translate(505.763301, 211.068469) rotate(6.000000) translate(-505.763301, -211.068469) "></path>
            <path d="M200.190647,84.1906474 C200.190647,84.1906474 320.991005,111.465086 325.190647,209.190647" id="Line-Copy-2" stroke="#FF3D7B" stroke-width="3" opacity="0.300000012" transform="translate(262.690647, 146.690647) rotate(6.000000) translate(-262.690647, -146.690647) "></path>
            <path d="M123.703111,384.380019 C115.827875,296.943313 307.302,251.477128 324.466817,399.242162" id="Line-Copy-4" stroke="#FF3D7B" stroke-width="3" opacity="0.300000012" transform="translate(223.966817, 351.242162) scale(1, -1) rotate(6.000000) translate(-223.966817, -351.242162) "></path>
            <g id="Rectangle-32">
                <use fill="black" fill-opacity="1" filter="url(#filter-14)" xlink:href="#path-13"></use>
                <use fill="#FFFFFF" fill-rule="evenodd" xlink:href="#path-13"></use>
            </g>
            <path d="M270.984,247.08 L264.504,247.08 L263.64,253.704 L270.072,253.704 L269.4,259.656 L262.92,259.656 L262.008,267 L255.864,267 L256.776,259.656 L250.248,259.656 L249.336,267 L243.192,267 L244.104,259.656 L237.672,259.656 L238.344,253.704 L244.824,253.704 L245.688,247.08 L239.256,247.08 L239.928,241.08 L246.408,241.08 L247.368,233.352 L253.512,233.352 L252.552,241.08 L259.08,241.08 L260.04,233.352 L266.184,233.352 L265.224,241.08 L271.656,241.08 L270.984,247.08 Z M257.496,253.704 L258.36,247.08 L251.832,247.08 L250.968,253.704 L257.496,253.704 Z M273.268,241.032 L281.956,241.032 L287.14,258.6 L292.228,241.032 L300.388,241.032 L305.524,258.6 L310.708,241.032 L319.06,241.032 L309.556,267 L301.108,267 L296.164,250.968 L291.172,267 L282.724,267 L273.268,241.032 Z M339.287862,242.4 C341.431873,243.504006 343.095856,245.05599 344.279862,247.056 C345.463868,249.05601 346.055862,251.367987 346.055862,253.992 C346.055862,256.648013 345.463868,258.97599 344.279862,260.976 C343.095856,262.97601 341.431873,264.527994 339.287862,265.632 C337.143851,266.736006 334.663876,267.288 331.847862,267.288 C329.031848,267.288 326.551873,266.736006 324.407862,265.632 C322.263851,264.527994 320.607868,262.97601 319.439862,260.976 C318.271856,258.97599 317.687862,256.648013 317.687862,253.992 C317.687862,251.367987 318.271856,249.05601 319.439862,247.056 C320.607868,245.05599 322.263851,243.504006 324.407862,242.4 C326.551873,241.295994 329.031848,240.744 331.847862,240.744 C334.663876,240.744 337.143851,241.295994 339.287862,242.4 Z M327.815862,249.432 C326.791857,250.616006 326.279862,252.16799 326.279862,254.088 C326.279862,256.04001 326.791857,257.607994 327.815862,258.792 C328.839867,259.976006 330.183854,260.568 331.847862,260.568 C333.543871,260.568 334.903857,259.976006 335.927862,258.792 C336.951867,257.607994 337.463862,256.04001 337.463862,254.088 C337.463862,252.16799 336.943867,250.616006 335.903862,249.432 C334.863857,248.247994 333.51187,247.656 331.847862,247.656 C330.183854,247.656 328.839867,248.247994 327.815862,249.432 Z M361.123724,241.896 C362.547731,241.095996 364.171715,240.696 365.995724,240.696 L365.995724,248.52 C365.707723,248.488 365.275727,248.472 364.699724,248.472 C362.683714,248.472 361.05173,248.943995 359.803724,249.888 C358.555718,250.832005 357.835725,252.119992 357.643724,253.752 L357.643724,267 L349.099724,267 L349.099724,241.032 L357.643724,241.032 L357.643724,245.352 C358.539729,243.847992 359.699717,242.696004 361.123724,241.896 Z M385.311586,267 L379.839586,257.208 L377.199586,259.944 L377.199586,267 L368.655586,267 L368.655586,231.384 L377.199586,231.384 L377.199586,249.816 L385.503586,241.032 L395.199586,241.032 L385.695586,251.064 L395.391586,267 L385.311586,267 Z" id="#work" fill="#FF3D7B"></path>
        </g>
    </g>
</svg>