<?xml version="1.0" encoding="UTF-8"?>
<svg width="639px" height="434px" viewBox="0 0 639 434" version="1.1" xmlns="http://www.w3.org/2000/svg" xmlns:xlink="http://www.w3.org/1999/xlink">
    <!-- Generator: Sketch 46.2 (44496) - http://www.bohemiancoding.com/sketch -->
    <title>graphic-reorder</title>
    <desc>Created with Sketch.</desc>
    <defs>
        <rect id="path-1" x="29" y="0" width="565.3125" height="418" rx="16.875"></rect>
        <filter x="-2.7%" y="-2.2%" width="105.3%" height="107.2%" filterUnits="objectBoundingBox" id="filter-2">
            <feOffset dx="0" dy="6" in="SourceAlpha" result="shadowOffsetOuter1"></feOffset>
            <feGaussianBlur stdDeviation="4" in="shadowOffsetOuter1" result="shadowBlurOuter1"></feGaussianBlur>
            <feColorMatrix values="0 0 0 0 0   0 0 0 0 0   0 0 0 0 0  0 0 0 0.25 0" type="matrix" in="shadowBlurOuter1"></feColorMatrix>
        </filter>
        <rect id="path-3" x="0" y="0" width="622.942414" height="75.35"></rect>
        <filter x="-2.4%" y="-11.9%" width="104.8%" height="139.8%" filterUnits="objectBoundingBox" id="filter-4">
            <feOffset dx="0" dy="6" in="SourceAlpha" result="shadowOffsetOuter1"></feOffset>
            <feGaussianBlur stdDeviation="4" in="shadowOffsetOuter1" result="shadowBlurOuter1"></feGaussianBlur>
            <feColorMatrix values="0 0 0 0 0   0 0 0 0 0   0 0 0 0 0  0 0 0 0.25 0" type="matrix" in="shadowBlurOuter1"></feColorMatrix>
        </filter>
        <linearGradient x1="87.6141601%" y1="90.4715862%" x2="5.62700681%" y2="7.39600191%" id="linearGradient-5">
            <stop stop-color="#8029CC" offset="0%"></stop>
            <stop stop-color="#AD30AF" offset="35.6840395%"></stop>
            <stop stop-color="#FF3D7B" offset="100%"></stop>
        </linearGradient>
    </defs>
    <g id="Page-1" stroke="none" stroke-width="1" fill="none" fill-rule="evenodd">
        <g id="website-desktop" transform="translate(-71.000000, -5323.000000)">
            <g id="graphic-reorder" transform="translate(79.000000, 5325.000000)">
                <g id="Rectangle-2">
                    <use fill="black" fill-opacity="1" filter="url(#filter-2)" xlink:href="#path-1"></use>
                    <use fill="#FFFFFF" fill-rule="evenodd" xlink:href="#path-1"></use>
                </g>
                <rect id="Rectangle" fill="#FFFFFF" x="29" y="0" width="565.3125" height="59.0625" rx="16.875"></rect>
                <g id="fullscreen" transform="translate(548.750000, 13.500000)">
                    <g id="Shape">
                        <polygon points="0 0 34 0 34 34 0 34"></polygon>
                        <path d="M9.91666667,19.8333333 L7.08333333,19.8333333 L7.08333333,26.9166667 L14.1666667,26.9166667 L14.1666667,24.0833333 L9.91666667,24.0833333 L9.91666667,19.8333333 Z M7.08333333,14.1666667 L9.91666667,14.1666667 L9.91666667,9.91666667 L14.1666667,9.91666667 L14.1666667,7.08333333 L7.08333333,7.08333333 L7.08333333,14.1666667 Z M24.0833333,24.0833333 L19.8333333,24.0833333 L19.8333333,26.9166667 L26.9166667,26.9166667 L26.9166667,19.8333333 L24.0833333,19.8333333 L24.0833333,24.0833333 Z M19.8333333,7.08333333 L19.8333333,9.91666667 L24.0833333,9.91666667 L24.0833333,14.1666667 L26.9166667,14.1666667 L26.9166667,7.08333333 L19.8333333,7.08333333 Z" fill="#000000" fill-rule="nonzero"></path>
                    </g>
                </g>
                <text id="#Today" fill="#33373B" font-family="Montserrat-Medium, Montserrat" font-size="27" font-weight="400">
                    <tspan x="262.847" y="39.5">#Today</tspan>
                </text>
                <text id="May-12" font-family="Montserrat-Medium, Montserrat" font-size="20.25" font-weight="400" fill="#33373B">
                    <tspan x="42.5" y="36.875">Sunday</tspan>
                </text>
                <path d="M29.9207044,59.720625 L595.265943,59.720625" id="Line" stroke="#989A9C" stroke-width="1.6875" opacity="0.197237319" stroke-linecap="square"></path>
                <text id="Got-#brunch-with-@co" font-family="Montserrat-Regular, Montserrat" font-size="16.875" font-weight="normal" fill="#33373B">
                    <tspan x="93.4493078" y="86.875">Got #brunch with @cofounders at the new place </tspan>
                    <tspan x="93.4493078" y="106.875">near the park $25.87 #SugarFreeChallenge </tspan>
                </text>
                <rect id="Rectangle-13-Copy-4" fill="#FF3D7B" style="mix-blend-mode: lighten;" x="271" y="91" width="187.3125" height="23.625"></rect>
                <rect id="Rectangle-13-Copy-18" fill="#FF3D7B" style="mix-blend-mode: lighten;" x="126" y="69" width="74.25" height="23.625"></rect>
                <rect id="Rectangle-13-Copy-5" fill="#4871DF" style="mix-blend-mode: lighten;" x="244" y="67" width="114.75" height="23.625"></rect>
                <rect id="Rectangle-13-Copy-6" fill="#87E193" style="mix-blend-mode: lighten;" x="211" y="87" width="60.75" height="23.625"></rect>
                <path d="M30.9198946,124.6681 L595.767908,124.6681" id="Line" stroke="#989A9C" stroke-width="1.68601583" opacity="0.197237319" stroke-linecap="square"></path>
                <text id="Met-with-Accel-Partn" font-family="Montserrat-Regular, Montserrat" font-size="16.8601583" font-weight="normal" fill="#33373B">
                    <tspan x="94.3926242" y="151.812665">Met with Accel Partners at 2:00pm and they loved </tspan>
                    <tspan x="94.3926242" y="171.812665">our progress!  #fundraising #firstround #excited</tspan>
                </text>
                <text id="👉" font-family="AppleColorEmoji, Apple Color Emoji" font-size="40" font-weight="normal" line-spacing="20" fill="#A5A6A9">
                    <tspan x="42" y="171">💰 </tspan>
                </text>
                <text id="🍳" font-family="AppleColorEmoji, Apple Color Emoji" font-size="40" font-weight="normal" line-spacing="20" fill="#A5A6A9">
                    <tspan x="42" y="106">🍳  </tspan>
                </text>
                <rect id="Rectangle-13-Copy-3" fill="#FF3D7B" style="mix-blend-mode: lighten;" x="211.62533" y="156.044855" width="298.308707" height="26.9762533"></rect>
                <rect id="Rectangle-13-Copy-21" fill="#8028CC" style="mix-blend-mode: lighten;" x="313" y="132" width="70.8126649" height="23.6042216"></rect>
                <path d="M29.9207044,285.345625 L595.265943,285.345625" id="Line" stroke="#989A9C" stroke-width="1.6875" opacity="0.197237319" stroke-linecap="square"></path>
                <path d="M29.9207044,189.345625 L595.265943,189.345625" id="Line-Copy" stroke="#989A9C" stroke-width="1.6875" opacity="0.197237319" stroke-linecap="square"></path>
                <text id="Call-@DrAnna-and-sch" font-family="Montserrat-Regular, Montserrat" font-size="16.8601583" font-weight="normal" fill="#33373B">
                    <tspan x="93.4493078" y="312.5125">Call @DrAnna and schedule an appointment for next </tspan>
                    <tspan x="93.4493078" y="332.5125">Wednesday or Thursday. #doctor #health  </tspan>
                </text>
                <text id="👩🏻‍⚕️" opacity="0.300000012" font-family="AppleColorEmoji, Apple Color Emoji" font-size="30" font-weight="normal" line-spacing="20" fill="#A5A6A9">
                    <tspan x="46.4749482" y="310.9999">👩🏻‍⚕️</tspan>
                </text>
                <path d="M29.9207044,349.358125 L595.265943,349.358125" id="Line" stroke="#989A9C" stroke-width="1.6875" opacity="0.197237319" stroke-linecap="square"></path>
                <text id="Go-for-a-30min-run-d" font-family="Montserrat-Regular, Montserrat" font-size="16.8601583" font-weight="normal" fill="#33373B">
                    <tspan x="93.4493078" y="378.5125">Go for a 30min run down by the river. #fitness #runs </tspan>
                    <tspan x="93.4493078" y="398.5125">#loose10lbs</tspan>
                </text>
                <text id="🏃" opacity="0.300000012" font-family="AppleColorEmoji, Apple Color Emoji" font-size="30" font-weight="normal" line-spacing="40" fill="#A5A6A9">
                    <tspan x="46.99995" y="386">🏃</tspan>
                </text>
                <g id="more" opacity="0.130264946" transform="translate(557.000000, 78.000000)" fill="#000000">
                    <path d="M2.75,5 C3.9875,5 5,3.9875 5,2.75 C5,1.5125 3.9875,0.5 2.75,0.5 C1.5125,0.5 0.5,1.5125 0.5,2.75 C0.5,3.9875 1.5125,5 2.75,5 L2.75,5 Z M2.75,11.75 C1.5125,11.75 0.5,12.7625 0.5,14 C0.5,15.2375 1.5125,16.25 2.75,16.25 C3.9875,16.25 5,15.2375 5,14 C5,12.7625 3.9875,11.75 2.75,11.75 L2.75,11.75 Z M2.75,23 C1.5125,23 0.5,24.0125 0.5,25.25 C0.5,26.4875 1.5125,27.5 2.75,27.5 C3.9875,27.5 5,26.4875 5,25.25 C5,24.0125 3.9875,23 2.75,23 L2.75,23 Z" id="Shape"></path>
                    <path d="M13.25,5 C14.4875,5 15.5,3.9875 15.5,2.75 C15.5,1.5125 14.4875,0.5 13.25,0.5 C12.0125,0.5 11,1.5125 11,2.75 C11,3.9875 12.0125,5 13.25,5 L13.25,5 Z M13.25,11.75 C12.0125,11.75 11,12.7625 11,14 C11,15.2375 12.0125,16.25 13.25,16.25 C14.4875,16.25 15.5,15.2375 15.5,14 C15.5,12.7625 14.4875,11.75 13.25,11.75 L13.25,11.75 Z M13.25,23 C12.0125,23 11,24.0125 11,25.25 C11,26.4875 12.0125,27.5 13.25,27.5 C14.4875,27.5 15.5,26.4875 15.5,25.25 C15.5,24.0125 14.4875,23 13.25,23 L13.25,23 Z" id="Shape-Copy"></path>
                </g>
                <g id="more-copy" opacity="0.130264946" transform="translate(557.000000, 143.000000)" fill="#000000">
                    <path d="M2.75,5 C3.9875,5 5,3.9875 5,2.75 C5,1.5125 3.9875,0.5 2.75,0.5 C1.5125,0.5 0.5,1.5125 0.5,2.75 C0.5,3.9875 1.5125,5 2.75,5 L2.75,5 Z M2.75,11.75 C1.5125,11.75 0.5,12.7625 0.5,14 C0.5,15.2375 1.5125,16.25 2.75,16.25 C3.9875,16.25 5,15.2375 5,14 C5,12.7625 3.9875,11.75 2.75,11.75 L2.75,11.75 Z M2.75,23 C1.5125,23 0.5,24.0125 0.5,25.25 C0.5,26.4875 1.5125,27.5 2.75,27.5 C3.9875,27.5 5,26.4875 5,25.25 C5,24.0125 3.9875,23 2.75,23 L2.75,23 Z" id="Shape"></path>
                    <path d="M13.25,5 C14.4875,5 15.5,3.9875 15.5,2.75 C15.5,1.5125 14.4875,0.5 13.25,0.5 C12.0125,0.5 11,1.5125 11,2.75 C11,3.9875 12.0125,5 13.25,5 L13.25,5 Z M13.25,11.75 C12.0125,11.75 11,12.7625 11,14 C11,15.2375 12.0125,16.25 13.25,16.25 C14.4875,16.25 15.5,15.2375 15.5,14 C15.5,12.7625 14.4875,11.75 13.25,11.75 L13.25,11.75 Z M13.25,23 C12.0125,23 11,24.0125 11,25.25 C11,26.4875 12.0125,27.5 13.25,27.5 C14.4875,27.5 15.5,26.4875 15.5,25.25 C15.5,24.0125 14.4875,23 13.25,23 L13.25,23 Z" id="Shape-Copy"></path>
                </g>
                <g id="more-copy-3" opacity="0.130264946" transform="translate(557.000000, 370.000000)" fill="#000000">
                    <path d="M2.75,5 C3.9875,5 5,3.9875 5,2.75 C5,1.5125 3.9875,0.5 2.75,0.5 C1.5125,0.5 0.5,1.5125 0.5,2.75 C0.5,3.9875 1.5125,5 2.75,5 L2.75,5 Z M2.75,11.75 C1.5125,11.75 0.5,12.7625 0.5,14 C0.5,15.2375 1.5125,16.25 2.75,16.25 C3.9875,16.25 5,15.2375 5,14 C5,12.7625 3.9875,11.75 2.75,11.75 L2.75,11.75 Z M2.75,23 C1.5125,23 0.5,24.0125 0.5,25.25 C0.5,26.4875 1.5125,27.5 2.75,27.5 C3.9875,27.5 5,26.4875 5,25.25 C5,24.0125 3.9875,23 2.75,23 L2.75,23 Z" id="Shape"></path>
                    <path d="M13.25,5 C14.4875,5 15.5,3.9875 15.5,2.75 C15.5,1.5125 14.4875,0.5 13.25,0.5 C12.0125,0.5 11,1.5125 11,2.75 C11,3.9875 12.0125,5 13.25,5 L13.25,5 Z M13.25,11.75 C12.0125,11.75 11,12.7625 11,14 C11,15.2375 12.0125,16.25 13.25,16.25 C14.4875,16.25 15.5,15.2375 15.5,14 C15.5,12.7625 14.4875,11.75 13.25,11.75 L13.25,11.75 Z M13.25,23 C12.0125,23 11,24.0125 11,25.25 C11,26.4875 12.0125,27.5 13.25,27.5 C14.4875,27.5 15.5,26.4875 15.5,25.25 C15.5,24.0125 14.4875,23 13.25,23 L13.25,23 Z" id="Shape-Copy"></path>
                </g>
                <g id="more-copy-4" opacity="0.130264946" transform="translate(557.000000, 303.000000)" fill="#000000">
                    <path d="M2.75,5 C3.9875,5 5,3.9875 5,2.75 C5,1.5125 3.9875,0.5 2.75,0.5 C1.5125,0.5 0.5,1.5125 0.5,2.75 C0.5,3.9875 1.5125,5 2.75,5 L2.75,5 Z M2.75,11.75 C1.5125,11.75 0.5,12.7625 0.5,14 C0.5,15.2375 1.5125,16.25 2.75,16.25 C3.9875,16.25 5,15.2375 5,14 C5,12.7625 3.9875,11.75 2.75,11.75 L2.75,11.75 Z M2.75,23 C1.5125,23 0.5,24.0125 0.5,25.25 C0.5,26.4875 1.5125,27.5 2.75,27.5 C3.9875,27.5 5,26.4875 5,25.25 C5,24.0125 3.9875,23 2.75,23 L2.75,23 Z" id="Shape"></path>
                    <path d="M13.25,5 C14.4875,5 15.5,3.9875 15.5,2.75 C15.5,1.5125 14.4875,0.5 13.25,0.5 C12.0125,0.5 11,1.5125 11,2.75 C11,3.9875 12.0125,5 13.25,5 L13.25,5 Z M13.25,11.75 C12.0125,11.75 11,12.7625 11,14 C11,15.2375 12.0125,16.25 13.25,16.25 C14.4875,16.25 15.5,15.2375 15.5,14 C15.5,12.7625 14.4875,11.75 13.25,11.75 L13.25,11.75 Z M13.25,23 C12.0125,23 11,24.0125 11,25.25 C11,26.4875 12.0125,27.5 13.25,27.5 C14.4875,27.5 15.5,26.4875 15.5,25.25 C15.5,24.0125 14.4875,23 13.25,23 L13.25,23 Z" id="Shape-Copy"></path>
                </g>
                <rect id="Rectangle-7" fill="#000000" style="mix-blend-mode: color;" x="37" y="361" width="47" height="40"></rect>
                <rect id="Rectangle-7-Copy" fill="#000000" style="mix-blend-mode: color;" x="37" y="295" width="47" height="40"></rect>
                <rect id="Rectangle-13-Copy-8" fill="#FF3D7B" style="mix-blend-mode: lighten;" x="307" y="317" width="140.971741" height="23.6042216"></rect>
                <rect id="Rectangle-13-Copy-9" fill="#FF3D7B" style="mix-blend-mode: lighten;" x="90" y="383" width="230.971741" height="23.6042216"></rect>
                <rect id="Rectangle-13-Copy-11" fill="#FF3D7B" style="mix-blend-mode: lighten;" x="414.971741" y="361" width="124" height="23.6042216"></rect>
                <rect id="Rectangle-13-Copy-22" fill="#8028CC" style="mix-blend-mode: lighten;" x="159" y="364" width="60.8126649" height="19.6042216"></rect>
                <rect id="Rectangle-6" fill="#C04BAE" opacity="0.263756793" x="29" y="190" width="565" height="95"></rect>
                <g id="drag" transform="translate(0.000000, 199.000000)">
                    <g id="Rectangle-2">
                        <use fill="black" fill-opacity="1" filter="url(#filter-4)" xlink:href="#path-3"></use>
                        <use fill="#FFFFFF" fill-rule="evenodd" xlink:href="#path-3"></use>
                    </g>
                    <text id="Finish-designs-for-#" font-family="Montserrat-Regular, Montserrat" font-size="18.5883245" font-weight="normal" fill="#33373B">
                        <tspan x="72" y="33">Finish designs for #boardpresentation by 5:00pm. </tspan>
                        <tspan x="72" y="56">Remember to fix spelling on the title slide. </tspan>
                    </text>
                    <text id="👉" font-family="AppleColorEmoji, Apple Color Emoji" font-size="44.1" font-weight="normal" line-spacing="22.05" fill="#A5A6A9">
                        <tspan x="14" y="53">👉</tspan>
                    </text>
                    <g id="more-copy-2" transform="translate(582.000000, 22.000000)" fill="url(#linearGradient-5)">
                        <path d="M3.13228799,5.8634375 C4.49663174,5.8634375 5.61291299,4.74715625 5.61291299,3.3828125 C5.61291299,2.01846875 4.49663174,0.9021875 3.13228799,0.9021875 C1.76794424,0.9021875 0.651662986,2.01846875 0.651662986,3.3828125 C0.651662986,4.74715625 1.76794424,5.8634375 3.13228799,5.8634375 L3.13228799,5.8634375 Z M3.13228799,13.3053125 C1.76794424,13.3053125 0.651662986,14.4215937 0.651662986,15.7859375 C0.651662986,17.1502812 1.76794424,18.2665625 3.13228799,18.2665625 C4.49663174,18.2665625 5.61291299,17.1502812 5.61291299,15.7859375 C5.61291299,14.4215937 4.49663174,13.3053125 3.13228799,13.3053125 L3.13228799,13.3053125 Z M3.13228799,25.7084375 C1.76794424,25.7084375 0.651662986,26.8247187 0.651662986,28.1890625 C0.651662986,29.5534062 1.76794424,30.6696875 3.13228799,30.6696875 C4.49663174,30.6696875 5.61291299,29.5534062 5.61291299,28.1890625 C5.61291299,26.8247187 4.49663174,25.7084375 3.13228799,25.7084375 L3.13228799,25.7084375 Z" id="Shape"></path>
                        <path d="M14.7026943,5.8634375 C16.0670381,5.8634375 17.1833193,4.74715625 17.1833193,3.3828125 C17.1833193,2.01846875 16.0670381,0.9021875 14.7026943,0.9021875 C13.3383506,0.9021875 12.2220693,2.01846875 12.2220693,3.3828125 C12.2220693,4.74715625 13.3383506,5.8634375 14.7026943,5.8634375 L14.7026943,5.8634375 Z M14.7026943,13.3053125 C13.3383506,13.3053125 12.2220693,14.4215937 12.2220693,15.7859375 C12.2220693,17.1502812 13.3383506,18.2665625 14.7026943,18.2665625 C16.0670381,18.2665625 17.1833193,17.1502812 17.1833193,15.7859375 C17.1833193,14.4215937 16.0670381,13.3053125 14.7026943,13.3053125 L14.7026943,13.3053125 Z M14.7026943,25.7084375 C13.3383506,25.7084375 12.2220693,26.8247187 12.2220693,28.1890625 C12.2220693,29.5534062 13.3383506,30.6696875 14.7026943,30.6696875 C16.0670381,30.6696875 17.1833193,29.5534062 17.1833193,28.1890625 C17.1833193,26.8247187 16.0670381,25.7084375 14.7026943,25.7084375 L14.7026943,25.7084375 Z" id="Shape-Copy"></path>
                    </g>
                </g>
                <polygon id="Rectangle-13-Copy-12" fill="#FF3D7B" style="mix-blend-mode: lighten;" points="236.082886 213.895778 430.971741 213.895778 430.971741 237.5 235 237.5"></polygon>
                <rect id="Rectangle-13-Copy-23" fill="#8028CC" style="mix-blend-mode: lighten;" x="462" y="213" width="74.8126649" height="23.6042216"></rect>
                <rect id="Rectangle-13-Copy-7" fill="#4871DF" style="mix-blend-mode: lighten;" x="126" y="296" width="124.75" height="23.625"></rect>
            </g>
        </g>
    </g>
</svg>