<?xml version="1.0" encoding="UTF-8"?>
<svg width="773px" height="727px" viewBox="0 0 773 727" version="1.1" xmlns="http://www.w3.org/2000/svg" xmlns:xlink="http://www.w3.org/1999/xlink">
    <!-- Generator: Sketch 46.2 (44496) - http://www.bohemiancoding.com/sketch -->
    <title>mascot-winning</title>
    <desc>Created with Sketch.</desc>
    <defs></defs>
    <g id="Page-1" stroke="none" stroke-width="1" fill="none" fill-rule="evenodd">
        <g id="mascot-winning">
            <g id="lobi-goals" transform="translate(3.000000, 1.000000)">
                <path d="M288.5,405 C353.698563,405.019165 446.463084,511.145918 566.793562,723.380258 L0.577822279,723.380258 C127.327377,511.107588 223.301437,404.980835 288.5,405 Z" id="Triangle-2" stroke="#4871DF" stroke-width="3.6" fill="#FFFFFF"></path>
                <path d="M288.575713,384 C368.09729,384 503.399721,557.923242 499.934726,587.632951 C496.469731,617.34266 438.988938,613.880678 388.104451,569.961323 C248.256234,449.255706 255.943336,651.40526 114.294513,645.88882 C-27.3543111,640.372381 209.054136,384 288.575713,384 Z" id="Triangle-2" stroke="#4871DF" stroke-width="3.6" fill="#FFFFFF"></path>
                <g id="brain" transform="translate(278.000000, 67.000000)" stroke="#4871DF" stroke-width="3.6" fill="#FFFFFF">
                    <ellipse id="Oval-11-Copy-15" cx="70.2" cy="57.4915254" rx="32.4" ry="32.3389831"></ellipse>
                    <path d="M95.3423605,96.9594182 C107.271711,96.9594182 116.94236,87.3069809 116.94236,75.4000962 C116.94236,63.4932114 107.271711,53.8407741 95.3423605,53.8407741 C83.4130099,53.8407741 73.7423605,63.4932114 73.7423605,75.4000962" id="Oval-11-Copy-14" transform="translate(95.342360, 75.400096) rotate(44.000000) translate(-95.342360, -75.400096) "></path>
                    <path d="M31.5,57.4915254 C45.914632,57.4915254 57.6,45.8281637 57.6,31.440678 C57.6,17.0531922 45.914632,5.38983051 31.5,5.38983051 C17.085368,5.38983051 5.4,17.0531922 5.4,31.440678" id="Oval-11-Copy-17" transform="translate(31.500000, 31.440678) rotate(-103.000000) translate(-31.500000, -31.440678) "></path>
                    <path d="M49.6269955,42.6554091 C58.6187518,42.6554091 65.9080104,35.3798778 65.9080104,26.4050551 C65.9080104,17.4302325 58.6187518,10.1547012 49.6269955,10.1547012" id="Oval-11-Copy-16" transform="translate(57.767503, 26.405055) rotate(-67.000000) translate(-57.767503, -26.405055) "></path>
                    <path d="M29.2772349,59.9155979 C38.2689912,59.9155979 45.5582499,52.6400666 45.5582499,43.665244 C45.5582499,34.6904213 38.2689912,27.41489 29.2772349,27.41489" id="Oval-11-Copy-45" transform="translate(37.417742, 43.665244) rotate(102.000000) translate(-37.417742, -43.665244) "></path>
                    <path d="M68.8772349,90.4579708 C77.8689912,90.4579708 85.1582499,83.1824395 85.1582499,74.2076168 C85.1582499,65.2327942 77.8689912,57.9572629 68.8772349,57.9572629" id="Oval-11-Copy-45" transform="translate(77.017742, 74.207617) rotate(112.000000) translate(-77.017742, -74.207617) "></path>
                </g>
                <path d="M437.431204,353.476405 C451.307987,353.476405 494.27411,319.623032 494.27411,291.371136 C494.27411,269.555482 475.124714,262.476405 465.360283,262.476405 C455.595852,262.476405 444.835157,267.206306 437.431204,270.310058 C430.027252,273.41381 423.554422,353.476405 437.431204,353.476405 Z" id="Oval-13-Copy-33" stroke="#4871DF" stroke-width="3.6" fill="#FFFFFF"></path>
                <ellipse id="Oval-19-Copy-11" fill="#4871DF" opacity="0.100000001" transform="translate(447.160554, 338.312250) rotate(-34.000000) translate(-447.160554, -338.312250) " cx="447.160554" cy="338.31225" rx="45.6853406" ry="9"></ellipse>
                <rect id="Rectangle-24" stroke="#4871DF" stroke-width="3.6" fill="#FFFFFF" transform="translate(471.887977, 272.172335) rotate(6.000000) translate(-471.887977, -272.172335) " x="460.387977" y="0.172334753" width="23" height="544" rx="5.4"></rect>
                <rect id="Rectangle-4" stroke="#4871DF" stroke-width="3.6" fill="#FFFFFF" transform="translate(633.903616, 68.726551) rotate(5.000000) translate(-633.903616, -68.726551) " x="628.403616" y="40.2265507" width="11" height="57"></rect>
                <path d="M496.689894,30.8668773 C560.101788,65.0391487 601.301404,80.5115251 620.288741,77.2840066 C648.769747,72.4427288 591.548519,34.0893396 637.739137,25.9203347 C660.428256,21.9076687 699.745175,23.5565163 755.689894,30.8668773 L755.689894,236.521623 C743.333077,231.519862 734.291725,227.941774 728.56584,225.787358 C682.443382,208.433364 663.750108,198.279016 643.726891,200.907292 C623.703675,203.535567 631.231907,205.95667 629.007217,258.925987 C627.52409,294.238864 583.418316,286.770743 496.689894,236.521623 L496.689894,30.8668773 Z" id="Rectangle-25" stroke="#4871DF" stroke-width="3.6" fill="#FFFFFF" transform="translate(626.189894, 152.287316) rotate(6.000000) translate(-626.189894, -152.287316) "></path>
                <path d="M644.059025,71.4333745 L612.076527,256.279283" id="Line-7" stroke="#4871DF" stroke-width="3.6" fill="#FFFFFF" transform="translate(627.676527, 164.177342) rotate(-4.000000) translate(-627.676527, -164.177342) "></path>
                <path d="M460.237333,325.262142 C468.215347,325.262142 477.185433,317.311378 474.682805,310.709075 C472.180178,304.106772 460.999108,289.90385 453.779209,287.638528 C446.559309,285.373205 443.754967,293.952836 442.110051,296.864973" id="Oval-14-Copy" stroke="#4871DF" stroke-width="3.6" fill="#FFFFFF" transform="translate(458.610051, 306.262142) rotate(48.000000) translate(-458.610051, -306.262142) "></path>
                <ellipse id="Oval-19-Copy-10" fill="#4871DF" opacity="0.100000001" cx="289" cy="482.5" rx="119" ry="38.5"></ellipse>
                <path d="M100.157095,345 C114.033878,345 157,311.146628 157,282.894732 C157,261.079078 137.850605,254 128.086173,254 C118.321742,254 107.561047,258.729902 100.157095,261.833654 C92.7531429,264.937405 86.2803122,345 100.157095,345 Z" id="Oval-13-Copy-30" stroke="#4871DF" stroke-width="3.6" fill="#FFFFFF" transform="translate(124.500000, 299.500000) scale(-1, 1) translate(-124.500000, -299.500000) "></path>
                <ellipse id="Oval-19-Copy-2" fill="#4871DF" opacity="0.100000001" transform="translate(147.038130, 334.044229) rotate(30.000000) translate(-147.038130, -334.044229) " cx="147.03813" cy="334.044229" rx="44.5" ry="9"></ellipse>
                <path d="M324.311251,492.395826 C338.188034,492.395826 381.154156,458.542453 381.154156,430.290557 C381.154156,408.474903 362.004761,401.395826 352.240329,401.395826 C342.475898,401.395826 331.715203,406.125728 324.311251,409.229479 C316.907299,412.333231 310.434468,492.395826 324.311251,492.395826 Z" id="Oval-13-Copy-31" stroke="#4871DF" stroke-width="3.6" fill="#FFFFFF" transform="translate(348.654156, 446.895826) scale(-1, 1) rotate(-240.000000) translate(-348.654156, -446.895826) "></path>
                <path d="M197.311251,492.395826 C211.188034,492.395826 254.154156,458.542453 254.154156,430.290557 C254.154156,408.474903 235.004761,401.395826 225.240329,401.395826 C215.475898,401.395826 204.715203,406.125728 197.311251,409.229479 C189.907299,412.333231 183.434468,492.395826 197.311251,492.395826 Z" id="Oval-13-Copy-32" stroke="#4871DF" stroke-width="3.6" fill="#FFFFFF" transform="translate(221.654156, 446.895826) rotate(-240.000000) translate(-221.654156, -446.895826) "></path>
                <ellipse id="Oval-19-Copy-3" fill="#4871DF" opacity="0.100000001" transform="translate(258.000000, 430.500000) rotate(-270.000000) translate(-258.000000, -430.500000) " cx="258" cy="430.5" rx="44.5" ry="9"></ellipse>
                <ellipse id="Oval-19-Copy-4" fill="#4871DF" opacity="0.100000001" transform="translate(367.356101, 428.265128) rotate(-263.000000) translate(-367.356101, -428.265128) " cx="367.356101" cy="428.265128" rx="44.5" ry="9"></ellipse>
                <path d="M434.952678,364.374426 L435,364.374426 L435,200.049814 C434.959117,181.504738 434.186054,162.384565 424.64016,147.785383 C416.672833,134.717916 377.262893,158.348255 330.988029,130.991242 C284.713165,103.63423 311.694452,56.0126913 291.449458,56.0126913 C290.260749,55.9841358 290.217884,56.0126913 289.022297,56.0126913 C209.002626,56.0126913 144.020811,120.335608 143.05549,200.049814 L143.044594,200.049814 L143.044594,363.87935 L143,363.87935 C143,408.128763 208.356444,444 288.977703,444 C369.298077,444 434.467362,408.396012 434.952678,364.374426 Z" id="Combined-Shape-Copy-7" stroke="#4871DF" stroke-width="3.6" fill="#FFFFFF"></path>
                <ellipse id="Oval-12-Copy-19" fill="#4871DF" opacity="0.100000001" cx="334" cy="234" rx="20" ry="7"></ellipse>
                <ellipse id="Oval-12-Copy-20" fill="#4871DF" opacity="0.100000001" cx="211" cy="234" rx="20" ry="7"></ellipse>
                <circle id="Oval-11-Copy-46" fill="#4871DF" cx="324" cy="197" r="17"></circle>
                <circle id="Oval-11-Copy-48" fill="#4871DF" cx="228" cy="197" r="17"></circle>
                <path d="M273.000716,258 C288.464294,258 301,245.581711 301,230.262975 C300.787418,226.554099 288.464294,226 273.000716,226 C257.537139,226 244.844908,227.235849 245.001432,230.262975 C245.001432,245.581711 257.537139,258 273.000716,258 Z" id="Oval-11-Copy-43" fill="#4871DF"></path>
            </g>
        </g>
    </g>
</svg>