<?xml version="1.0" encoding="UTF-8"?>
<svg width="404px" height="454px" viewBox="0 0 404 454" version="1.1" xmlns="http://www.w3.org/2000/svg" xmlns:xlink="http://www.w3.org/1999/xlink">
    <!-- Generator: Sketch 46.2 (44496) - http://www.bohemiancoding.com/sketch -->
    <title>mascot-overload</title>
    <desc>Created with Sketch.</desc>
    <defs></defs>
    <g id="Page-1" stroke="none" stroke-width="1" fill="none" fill-rule="evenodd">
        <g id="mascot-overload">
            <g id="lobi-sad" transform="translate(2.000000, 2.000000)">
                <ellipse id="Oval-19" fill="#000000" opacity="0.049999997" cx="198" cy="413.5" rx="146" ry="38.5"></ellipse>
                <g id="Group-11-Copy-5" transform="translate(195.000000, 7.000000)" stroke="#000000" stroke-width="3.6" fill="#FFFFFF">
                    <ellipse id="Oval-11-Copy-15" cx="70.2" cy="57.4915254" rx="32.4" ry="32.3389831"></ellipse>
                    <path d="M95.3423605,96.9594182 C107.271711,96.9594182 116.94236,87.3069809 116.94236,75.4000962 C116.94236,63.4932114 107.271711,53.8407741 95.3423605,53.8407741 C83.4130099,53.8407741 73.7423605,63.4932114 73.7423605,75.4000962" id="Oval-11-Copy-14" transform="translate(95.342360, 75.400096) rotate(44.000000) translate(-95.342360, -75.400096) "></path>
                    <path d="M44.0637346,67.4663508 C58.4783666,67.4663508 70.1637346,55.8029891 70.1637346,41.4155033 C70.1637346,27.0280176 58.4783666,15.3646559 44.0637346,15.3646559 C34.45398,15.3646559 18.9163002,25.235897 -2.5493048,44.9783794" id="Oval-11-Copy-17" transform="translate(33.807215, 41.415503) rotate(-103.000000) translate(-33.807215, -41.415503) "></path>
                    <path d="M49.7503403,43.1770205 C58.7420965,43.1770205 66.0313552,35.9014892 66.0313552,26.9266666 C66.0313552,17.9518439 58.7420965,10.6763127 49.7503403,10.6763127" id="Oval-11-Copy-16" transform="translate(57.890848, 26.926667) rotate(-67.000000) translate(-57.890848, -26.926667) "></path>
                </g>
                <path d="M343.157095,286 C357.033878,286 400,252.146628 400,223.894732 C400,202.079078 380.850605,195 371.086173,195 C361.321742,195 350.561047,199.729902 343.157095,202.833654 C335.753143,205.937405 329.280312,286 343.157095,286 Z" id="Oval-13-Copy-34" stroke="#000000" stroke-width="3.6" fill="#FFFFFF" transform="translate(367.500000, 240.500000) scale(1, -1) translate(-367.500000, -240.500000) "></path>
                <path d="M234.311251,438.395826 C248.188034,438.395826 291.154156,404.542453 291.154156,376.290557 C291.154156,354.474903 272.004761,347.395826 262.240329,347.395826 C252.475898,347.395826 241.715203,352.125728 234.311251,355.229479 C226.907299,358.333231 220.434468,438.395826 234.311251,438.395826 Z" id="Oval-13-Copy-36" stroke="#000000" stroke-width="3.6" fill="#FFFFFF" transform="translate(258.654156, 392.895826) scale(-1, 1) rotate(-240.000000) translate(-258.654156, -392.895826) "></path>
                <path d="M106.311251,438.395826 C120.188034,438.395826 163.154156,404.542453 163.154156,376.290557 C163.154156,354.474903 144.004761,347.395826 134.240329,347.395826 C124.475898,347.395826 113.715203,352.125728 106.311251,355.229479 C98.9072987,358.333231 92.434468,438.395826 106.311251,438.395826 Z" id="Oval-13-Copy-37" stroke="#000000" stroke-width="3.6" fill="#FFFFFF" transform="translate(130.654156, 392.895826) rotate(-240.000000) translate(-130.654156, -392.895826) "></path>
                <ellipse id="Oval-19-Copy-7" fill="#000000" opacity="0.100000001" transform="translate(167.000000, 379.500000) rotate(-270.000000) translate(-167.000000, -379.500000) " cx="167" cy="379.5" rx="44.5" ry="9"></ellipse>
                <path d="M8.15709493,286 C22.0338777,286 65,252.146628 65,223.894732 C65,202.079078 45.8506047,195 36.0861735,195 C26.3217423,195 15.561047,199.729902 8.15709493,202.833654 C0.753142853,205.937405 -5.71968784,286 8.15709493,286 Z" id="Oval-13-Copy-35" stroke="#000000" stroke-width="3.6" fill="#FFFFFF" transform="translate(32.500000, 240.500000) scale(-1, -1) translate(-32.500000, -240.500000) "></path>
                <ellipse id="Oval-19-Copy-6" fill="#000000" opacity="0.100000001" transform="translate(59.313403, 266.321690) rotate(-24.000000) translate(-59.313403, -266.321690) " cx="59.3134027" cy="266.32169" rx="44.5" ry="9"></ellipse>
                <ellipse id="Oval-19-Copy-9" fill="#000000" opacity="0.100000001" transform="translate(335.222592, 260.784472) rotate(33.000000) translate(-335.222592, -260.784472) " cx="335.222592" cy="260.784472" rx="44.5" ry="9"></ellipse>
                <ellipse id="Oval-19-Copy-8" fill="#000000" opacity="0.100000001" transform="translate(276.356101, 377.265128) rotate(-263.000000) translate(-276.356101, -377.265128) " cx="276.356101" cy="377.265128" rx="44.5" ry="9"></ellipse>
                <path d="M345.952678,308.374426 L346,308.374426 L346,144.049814 C345.959117,125.504738 345.186054,106.384565 335.64016,91.7853831 C327.672833,78.7179163 288.262893,102.348255 241.988029,74.9912424 C195.713165,47.6342298 222.694452,0.01269132 202.449458,0.01269132 C201.260749,-0.0158641501 201.217884,0.01269132 200.022297,0.01269132 C120.002626,0.01269132 55.020811,64.3356077 54.0554902,144.049814 L54.0445939,144.049814 L54.0445939,307.87935 L54,307.87935 C54,352.128763 119.356444,388 199.977703,388 C280.298077,388 345.467362,352.396012 345.952678,308.374426 Z" id="Combined-Shape-Copy-8" stroke="#000000" stroke-width="3.6" fill="#FFFFFF"></path>
                <ellipse id="Oval-12-Copy-22" fill="#D8D8D8" opacity="0.272588315" cx="247" cy="173" rx="20" ry="7"></ellipse>
                <ellipse id="Oval-12-Copy-23" fill="#D8D8D8" opacity="0.272588315" cx="125" cy="173" rx="20" ry="7"></ellipse>
                <path d="M231,151 C240.388841,151 248,147.388841 248,138 C248,128.611159 240.388841,121 231,121 C221.611159,121 214,128.611159 214,138 C214,147.388841 221.611159,151 231,151 Z" id="Oval-11-Copy-47" fill="#0F0A15"></path>
                <path d="M185.000716,194 C200.464294,194 213,181.581711 213,166.262975 C212.787418,162.554099 200.464294,162 185.000716,162 C169.537139,162 156.844908,163.235849 157.001432,166.262975 C157.001432,181.581711 169.537139,194 185.000716,194 Z" id="Oval-11-Copy-49" fill="#0F0A15" transform="translate(185.000000, 178.000000) rotate(-180.000000) translate(-185.000000, -178.000000) "></path>
                <path d="M136,151 C145.388841,151 153,147.388841 153,138 C153,128.611159 145.388841,121 136,121 C126.611159,121 119,128.611159 119,138 C119,147.388841 126.611159,151 136,151 Z" id="Oval-11-Copy-50" fill="#0F0A15"></path>
                <g id="Group-10-Copy" transform="translate(155.271120, 66.876518) rotate(49.000000) translate(-155.271120, -66.876518) translate(113.271120, 20.876518)" stroke="#000000" stroke-width="3.6">
                    <path d="M13.1150353,46.9251143 C25.9166485,46.9251143 36.2944065,36.5376345 36.2944065,23.7240288 C36.2944065,14.7352132 31.1874076,6.94031857 23.7192395,3.08774695" id="Oval-15" transform="translate(24.704721, 25.006431) rotate(21.000000) translate(-24.704721, -25.006431) "></path>
                    <path d="M11.6195673,83.5410975 C23.2200185,83.5410975 32.6240423,74.1282641 32.6240423,62.5169457 C32.6240423,54.3715413 27.9962277,47.3080335 21.2287901,43.8169446" id="Oval-15-Copy-3" transform="translate(22.121805, 63.679021) rotate(-45.000000) translate(-22.121805, -63.679021) "></path>
                    <path d="M47.8840921,52.0824516 C60.6857053,52.0824516 71.0634632,41.6949718 71.0634632,28.8813661 C71.0634632,19.8925506 65.9564643,12.0976559 58.4882963,8.24508428" id="Oval-15-Copy" transform="translate(59.473778, 30.163768) rotate(134.000000) translate(-59.473778, -30.163768) "></path>
                    <path d="M45.3086064,89.4731473 C58.1102196,89.4731473 68.4879776,79.0856675 68.4879776,66.2720618 C68.4879776,57.2832462 63.3809786,49.4883516 55.9128106,45.63578" id="Oval-15-Copy-2" transform="translate(56.898292, 67.554464) rotate(218.000000) translate(-56.898292, -67.554464) "></path>
                </g>
                <path d="M311.561102,129.69165 L311.561102,81 L288,81 L288,129.69165 C288,136.698347 293.537845,142.406066 299.780551,142.406066 C306.023257,142.406066 311.561102,136.698347 311.561102,129.69165 Z" id="Combined-Shape-Copy-9" stroke="#000000" stroke-width="3.6" fill="#FFFFFF"></path>
                <rect id="Rectangle-22-Copy-2" fill="#FFFFFF" x="286" y="79" width="24" height="8"></rect>
                <path d="M277.602065,109.995653 L277.814132,109.995653 L277.814132,74 L254,74 L254,109.995653 L254.212067,109.995653 C254.20968,110.102247 254.208479,110.209165 254.208479,110.31639 C254.208479,117.398334 259.446115,123.139384 265.907066,123.139384 C272.368017,123.139384 277.605653,117.398334 277.605653,110.31639 C277.605653,110.209165 277.604453,110.102247 277.602065,109.995653 Z" id="Combined-Shape-Copy-10" stroke="#000000" stroke-width="3.6" fill="#FFFFFF"></path>
                <rect id="Rectangle-22-Copy-3" fill="#FFFFFF" x="251" y="71" width="29" height="6"></rect>
                <g id="Group-13-Copy-4" transform="translate(320.687874, 46.797881) rotate(96.000000) translate(-320.687874, -46.797881) translate(313.687874, 38.797881)" stroke="#000000" stroke-width="1.8" stroke-linecap="square">
                    <path d="M13.5288462,4 L2.22115385,10.2222222" id="Line-4"></path>
                    <path d="M3.9375,0.5 L11.8125,15.5" id="Line-5"></path>
                    <path d="M11.8125,8.44444444 L0.4375,5.77777778" id="Line-6"></path>
                </g>
                <g id="Group-13-Copy-6" transform="translate(272.687874, 14.797881) rotate(-12.000000) translate(-272.687874, -14.797881) translate(265.687874, 6.797881)" stroke="#000000" stroke-width="1.8" stroke-linecap="square">
                    <path d="M13.5288462,4 L2.22115385,10.2222222" id="Line-4"></path>
                    <path d="M3.9375,0.5 L11.8125,15.5" id="Line-5"></path>
                    <path d="M11.8125,8.44444444 L0.4375,5.77777778" id="Line-6"></path>
                </g>
                <g id="Group-13-Copy-5" transform="translate(251.648711, 61.155520) rotate(204.000000) translate(-251.648711, -61.155520) translate(244.648711, 53.155520)" stroke="#000000" stroke-width="1.8" stroke-linecap="square">
                    <path d="M13.5288462,4 L2.22115385,10.2222222" id="Line-4"></path>
                    <path d="M3.9375,0.5 L11.8125,15.5" id="Line-5"></path>
                    <path d="M11.8125,8.44444444 L0.4375,5.77777778" id="Line-6"></path>
                </g>
            </g>
        </g>
    </g>
</svg>