<?xml version="1.0" encoding="UTF-8"?>
<svg width="540px" height="540px" viewBox="0 0 540 540" version="1.1" xmlns="http://www.w3.org/2000/svg" xmlns:xlink="http://www.w3.org/1999/xlink">
    <!-- Generator: Sketch 48.2 (47327) - http://www.bohemiancoding.com/sketch -->
    <title>mascot-winning</title>
    <desc>Created with Sketch.</desc>
    <defs></defs>
    <g id="Page-1" stroke="none" stroke-width="1" fill="none" fill-rule="evenodd">
        <g id="mascot-winning">
            <path d="M226.594713,396 C302.362043,396.017179 410.163805,491.143931 550,681.380258 L-108,681.380258 C39.295812,491.109574 150.827383,395.982821 226.594713,396 Z" id="Triangle-2" stroke="#4871DF" stroke-width="3.6" fill="#FFFFFF"></path>
            <g id="lobi-goals-copy" transform="translate(11.000000, 10.000000)">
                <path d="M388.164256,9.9106055 C418.968041,34.8881261 438.9817,46.1973422 448.205236,43.8382538 C462.040538,40.2996211 434.244013,12.2659982 456.682166,6.29503169 C467.703927,3.3620558 486.803024,4.56724707 513.979456,9.9106055 L513.979456,160.229722 C507.976848,156.573788 503.584804,153.958458 500.803324,152.383731 C478.39828,139.699186 469.317593,132.277074 459.590856,134.198158 C449.864118,136.119242 453.52113,137.888897 452.440436,176.605732 C451.719973,202.416956 430.29458,196.958286 388.164256,160.229722 L388.164256,9.9106055 Z" id="Rectangle-25" stroke="#4871DF" stroke-width="3.6" fill="#FFFFFF"></path>
                <g id="brain" transform="translate(186.000000, 57.000000)" fill="#FFFFFF" stroke="#4871DF" stroke-width="3.6">
                    <ellipse id="Oval-11-Copy-15" cx="70.2" cy="57.4915254" rx="32.4" ry="32.3389831"></ellipse>
                    <path d="M95.3423605,96.9594182 C107.271711,96.9594182 116.94236,87.3069809 116.94236,75.4000962 C116.94236,63.4932114 107.271711,53.8407741 95.3423605,53.8407741 C83.4130099,53.8407741 73.7423605,63.4932114 73.7423605,75.4000962" id="Oval-11-Copy-14" transform="translate(95.342360, 75.400096) rotate(44.000000) translate(-95.342360, -75.400096) "></path>
                    <path d="M31.5,57.4915254 C45.914632,57.4915254 57.6,45.8281637 57.6,31.440678 C57.6,17.0531922 45.914632,5.38983051 31.5,5.38983051 C17.085368,5.38983051 5.4,17.0531922 5.4,31.440678" id="Oval-11-Copy-17" transform="translate(31.500000, 31.440678) rotate(-103.000000) translate(-31.500000, -31.440678) "></path>
                    <path d="M49.6269955,42.6554091 C58.6187518,42.6554091 65.9080104,35.3798778 65.9080104,26.4050551 C65.9080104,17.4302325 58.6187518,10.1547012 49.6269955,10.1547012" id="Oval-11-Copy-16" transform="translate(57.767503, 26.405055) rotate(-67.000000) translate(-57.767503, -26.405055) "></path>
                    <path d="M29.2772349,59.9155979 C38.2689912,59.9155979 45.5582499,52.6400666 45.5582499,43.665244 C45.5582499,34.6904213 38.2689912,27.41489 29.2772349,27.41489" id="Oval-11-Copy-45" transform="translate(37.417742, 43.665244) rotate(102.000000) translate(-37.417742, -43.665244) "></path>
                    <path d="M68.8772349,90.4579708 C77.8689912,90.4579708 85.1582499,83.1824395 85.1582499,74.2076168 C85.1582499,65.2327942 77.8689912,57.9572629 68.8772349,57.9572629" id="Oval-11-Copy-45" transform="translate(77.017742, 74.207617) rotate(112.000000) translate(-77.017742, -74.207617) "></path>
                </g>
                <path d="M345.431204,343.476405 C359.307987,343.476405 402.27411,309.623032 402.27411,281.371136 C402.27411,259.555482 383.124714,252.476405 373.360283,252.476405 C363.595852,252.476405 352.835157,257.206306 345.431204,260.310058 C338.027252,263.41381 331.554422,343.476405 345.431204,343.476405 Z" id="Oval-13-Copy-33" stroke="#4871DF" stroke-width="3.6" fill="#FFFFFF"></path>
                <ellipse id="Oval-19-Copy-11" fill="#4871DF" opacity="0.100000001" transform="translate(355.160554, 328.312250) rotate(-34.000000) translate(-355.160554, -328.312250) " cx="355.160554" cy="328.31225" rx="45.6853406" ry="9"></ellipse>
                <rect id="Rectangle-24" stroke="#4871DF" stroke-width="3.6" fill="#FFFFFF" x="365.23041" y="0.321300327" width="23" height="489.614192" rx="5.4"></rect>
                <path d="M457.166052,38.0429993 L447.631591,177.336836" id="Line-7" stroke="#4871DF" stroke-width="3.6" fill="#FFFFFF" transform="translate(452.401998, 107.711926) rotate(-4.000000) translate(-452.401998, -107.711926) "></path>
                <path d="M448.482609,17.5555188 L445.531864,45.4175558" id="Line-7-Copy" stroke="#4871DF" stroke-width="3.6" fill="#FFFFFF" transform="translate(447.196379, 31.596884) rotate(-4.000000) translate(-447.196379, -31.596884) "></path>
                <path d="M368.237333,315.262142 C376.215347,315.262142 385.185433,307.311378 382.682805,300.709075 C380.180178,294.106772 368.999108,279.90385 361.779209,277.638528 C354.559309,275.373205 351.754967,283.952836 350.110051,286.864973" id="Oval-14-Copy" stroke="#4871DF" stroke-width="3.6" fill="#FFFFFF" transform="translate(366.610051, 296.262142) rotate(48.000000) translate(-366.610051, -296.262142) "></path>
                <ellipse id="Oval-19-Copy-10" fill="#4871DF" opacity="0.100000001" cx="210" cy="472.5" rx="119" ry="38.5"></ellipse>
                <path d="M8.15709493,335 C22.0338777,335 65,301.146628 65,272.894732 C65,251.079078 45.8506047,244 36.0861735,244 C26.3217423,244 15.561047,248.729902 8.15709493,251.833654 C0.753142853,254.937405 -5.71968784,335 8.15709493,335 Z" id="Oval-13-Copy-30" stroke="#4871DF" stroke-width="3.6" fill="#FFFFFF" transform="translate(32.500000, 289.500000) scale(-1, 1) translate(-32.500000, -289.500000) "></path>
                <ellipse id="Oval-19-Copy-2" fill="#4871DF" opacity="0.100000001" transform="translate(55.038130, 324.044229) rotate(30.000000) translate(-55.038130, -324.044229) " cx="55.0381305" cy="324.044229" rx="44.5" ry="9"></ellipse>
                <path d="M232.311251,482.395826 C246.188034,482.395826 289.154156,448.542453 289.154156,420.290557 C289.154156,398.474903 270.004761,391.395826 260.240329,391.395826 C250.475898,391.395826 239.715203,396.125728 232.311251,399.229479 C224.907299,402.333231 218.434468,482.395826 232.311251,482.395826 Z" id="Oval-13-Copy-31" stroke="#4871DF" stroke-width="3.6" fill="#FFFFFF" transform="translate(256.654156, 436.895826) scale(-1, 1) rotate(-240.000000) translate(-256.654156, -436.895826) "></path>
                <path d="M105.311251,482.395826 C119.188034,482.395826 162.154156,448.542453 162.154156,420.290557 C162.154156,398.474903 143.004761,391.395826 133.240329,391.395826 C123.475898,391.395826 112.715203,396.125728 105.311251,399.229479 C97.9072987,402.333231 91.434468,482.395826 105.311251,482.395826 Z" id="Oval-13-Copy-32" stroke="#4871DF" stroke-width="3.6" fill="#FFFFFF" transform="translate(129.654156, 436.895826) rotate(-240.000000) translate(-129.654156, -436.895826) "></path>
                <ellipse id="Oval-19-Copy-3" fill="#4871DF" opacity="0.100000001" transform="translate(166.000000, 420.500000) rotate(-270.000000) translate(-166.000000, -420.500000) " cx="166" cy="420.5" rx="44.5" ry="9"></ellipse>
                <ellipse id="Oval-19-Copy-4" fill="#4871DF" opacity="0.100000001" transform="translate(275.356101, 418.265128) rotate(-263.000000) translate(-275.356101, -418.265128) " cx="275.356101" cy="418.265128" rx="44.5" ry="9"></ellipse>
                <path d="M342.952678,354.374426 C342.467362,398.396012 277.298077,434 196.977703,434 C116.356444,434 51,398.128763 51,353.87935 L51.0445939,353.87935 L51.0445939,190.049814 L51.0554902,190.049814 C52.020811,110.335608 117.002626,46.0126913 197.022297,46.0126913 C198.217884,46.0126913 198.260749,45.9841358 199.449458,46.0126913 C219.694452,46.0126913 192.713165,93.6342298 238.988029,120.991242 C285.262893,148.348255 324.672833,124.717916 332.64016,137.785383 C342.186054,152.384565 342.959117,171.504738 342.998236,190.049815 L343,354.374426 L342.952678,354.374426 Z" id="Combined-Shape-Copy-7" stroke="#4871DF" stroke-width="3.6" fill="#FFFFFF"></path>
                <ellipse id="Oval-12-Copy-19" fill="#4871DF" opacity="0.100000001" cx="242" cy="224" rx="20" ry="7"></ellipse>
                <ellipse id="Oval-12-Copy-20" fill="#4871DF" opacity="0.100000001" cx="119" cy="224" rx="20" ry="7"></ellipse>
                <circle id="Oval-11-Copy-46" fill="#4871DF" cx="232" cy="187" r="17"></circle>
                <circle id="Oval-11-Copy-48" fill="#4871DF" cx="136" cy="187" r="17"></circle>
                <path d="M181.000716,248 C196.464294,248 209,235.581711 209,220.262975 C208.787418,216.554099 196.464294,216 181.000716,216 C165.537139,216 152.844908,217.235849 153.001432,220.262975 C153.001432,235.581711 165.537139,248 181.000716,248 Z" id="Oval-11-Copy-43" fill="#4871DF"></path>
            </g>
        </g>
    </g>
</svg>