<?xml version="1.0" encoding="UTF-8"?>
<svg width="540px" height="540px" viewBox="0 0 540 540" version="1.1" xmlns="http://www.w3.org/2000/svg" xmlns:xlink="http://www.w3.org/1999/xlink">
    <!-- Generator: Sketch 48.2 (47327) - http://www.bohemiancoding.com/sketch -->
    <title>mascot-experiment</title>
    <desc>Created with Sketch.</desc>
    <defs></defs>
    <g id="Page-1" stroke="none" stroke-width="1" fill="none" fill-rule="evenodd">
        <g id="mascot-experiment">
            <g id="nimi-experiment" transform="translate(48.000000, 5.000000)">
                <ellipse id="Oval-19-Copy" fill="#59C9C3" opacity="0.200000003" cx="235.900826" cy="487.85461" rx="149.280992" ry="42.1453901"></ellipse>
                <ellipse id="Oval-11-Copy-15" stroke="#59C9C3" stroke-width="3.68794326" fill="#FFFFFF" cx="291.190083" cy="130.390071" rx="33.1735537" ry="33.1914894"></ellipse>
                <path d="M316.93272,170.898399 C329.146885,170.898399 339.048422,160.991509 339.048422,148.77074 C339.048422,136.549971 329.146885,126.64308 316.93272,126.64308 C304.718555,126.64308 294.817017,136.549971 294.817017,148.77074" id="Oval-11-Copy-14" stroke="#59C9C3" stroke-width="3.68794326" fill="#FFFFFF" transform="translate(316.932720, 148.770740) rotate(44.000000) translate(-316.932720, -148.770740) "></path>
                <path d="M251.566116,130.390071 C266.324899,130.390071 278.289256,118.419245 278.289256,103.652482 C278.289256,88.8857198 266.324899,76.9148936 251.566116,76.9148936 C236.807333,76.9148936 224.842975,88.8857198 224.842975,103.652482" id="Oval-11-Copy-17" stroke="#59C9C3" stroke-width="3.68794326" fill="#FFFFFF" transform="translate(251.566116, 103.652482) rotate(-103.000000) translate(-251.566116, -103.652482) "></path>
                <path d="M270.125895,115.162851 C279.332331,115.162851 286.795621,107.695526 286.795621,98.4841125 C286.795621,89.2726995 279.332331,81.8053738 270.125895,81.8053738" id="Oval-11-Copy-16" stroke="#59C9C3" stroke-width="3.68794326" fill="#FFFFFF" transform="translate(278.460758, 98.484113) rotate(-67.000000) translate(-278.460758, -98.484113) "></path>
                <path d="M249.290282,132.878046 C258.496717,132.878046 265.960008,125.41072 265.960008,116.199307 C265.960008,106.987894 258.496717,99.5205683 249.290282,99.5205683" id="Oval-11-Copy-45" stroke="#59C9C3" stroke-width="3.68794326" fill="#FFFFFF" transform="translate(257.625145, 116.199307) rotate(102.000000) translate(-257.625145, -116.199307) "></path>
                <path d="M289.835736,164.225563 C299.042172,164.225563 306.505462,156.758238 306.505462,147.546825 C306.505462,138.335412 299.042172,130.868086 289.835736,130.868086" id="Oval-11-Copy-45" stroke="#59C9C3" stroke-width="3.68794326" fill="#FFFFFF" transform="translate(298.170599, 147.546825) rotate(112.000000) translate(-298.170599, -147.546825) "></path>
                <path d="M277.45515,505 C291.331932,505 334.298055,471.146628 334.298055,442.894732 C334.298055,421.079078 315.148659,414 305.384228,414 C295.619797,414 284.859102,418.729902 277.45515,421.833654 C270.051198,424.937405 263.578367,505 277.45515,505 Z" id="Oval-13-Copy-20" stroke="#59C9C3" stroke-width="3.6" fill="#FFFFFF" transform="translate(301.798055, 459.500000) scale(-1, 1) rotate(-240.000000) translate(-301.798055, -459.500000) "></path>
                <path d="M149.45515,505 C163.331932,505 206.298055,471.146628 206.298055,442.894732 C206.298055,421.079078 187.148659,414 177.384228,414 C167.619797,414 156.859102,418.729902 149.45515,421.833654 C142.051198,424.937405 135.578367,505 149.45515,505 Z" id="Oval-13-Copy-22" stroke="#59C9C3" stroke-width="3.6" fill="#FFFFFF" transform="translate(173.798055, 459.500000) rotate(-240.000000) translate(-173.798055, -459.500000) "></path>
                <ellipse id="Oval-19-Copy-3" fill="#59C9C3" opacity="0.200000003" transform="translate(209.143899, 446.104174) rotate(-270.000000) translate(-209.143899, -446.104174) " cx="209.143899" cy="446.104174" rx="44.5" ry="9"></ellipse>
                <ellipse id="Oval-19-Copy-4" fill="#59C9C3" opacity="0.200000003" transform="translate(318.356101, 444.265128) rotate(-263.000000) translate(-318.356101, -444.265128) " cx="318.356101" cy="444.265128" rx="44.5" ry="9"></ellipse>
                <path d="M371.630523,363.188678 C385.880383,363.188678 430.001647,328.686333 430.001647,299.892845 C430.001647,277.658984 410.337421,270.444199 400.310474,270.444199 C390.283526,270.444199 379.23353,275.264774 371.630523,278.428025 C364.027516,281.591276 357.380664,363.188678 371.630523,363.188678 Z" id="Oval-13-Copy-18" stroke="#59C9C3" stroke-width="3.68794326" fill="#FFFFFF" transform="translate(396.627886, 316.816439) rotate(22.000000) translate(-396.627886, -316.816439) "></path>
                <ellipse id="Oval-19-Copy-12" fill="#59C9C3" opacity="0.200000003" transform="translate(386.479046, 337.672079) rotate(-203.000000) translate(-386.479046, -337.672079) " cx="386.479046" cy="337.672079" rx="44.5" ry="9"></ellipse>
                <path d="M53.6931727,367.813545 C67.9430321,367.813545 112.064297,333.3112 112.064297,304.517713 C112.064297,282.283851 92.4000707,275.069067 82.3731232,275.069067 C75.6884915,275.069067 59.2192541,279.930512 32.9654109,289.653404 C37.2840125,341.760165 44.1932664,367.813545 53.6931727,367.813545 Z" id="Oval-13-Copy-19" stroke="#59C9C3" stroke-width="3.68794326" fill="#FFFFFF" transform="translate(72.514854, 321.441306) scale(-1, 1) rotate(31.000000) translate(-72.514854, -321.441306) "></path>
                <ellipse id="Oval-19-Copy-13" fill="#59C9C3" opacity="0.200000003" transform="translate(88.398773, 346.055399) rotate(-168.000000) translate(-88.398773, -346.055399) " cx="88.3987735" cy="346.055399" rx="44.5" ry="9"></ellipse>
                <path d="M387.022003,377.989309 C386.525706,423.074661 319.881723,459.539007 237.743802,459.539007 C155.298186,459.539007 88.4628099,422.800954 88.4628099,377.48227 L88.5084129,377.48227 L88.5084129,209.693849 L88.5195558,209.693849 C89.5067205,128.053376 155.958991,62.1761186 237.789405,62.1761186 C239.012046,62.1761186 239.055881,62.1468731 240.27149,62.1761186 C260.974601,62.1761186 233.382763,110.948415 280.704767,138.966501 C328.026772,166.984586 368.328509,142.783228 376.476127,156.166466 C386.238032,171.118432 387.028588,190.700637 387.068592,209.69385 L387.070396,377.989309 L387.022003,377.989309 Z" id="Combined-Shape" stroke="#59C9C3" stroke-width="3.68794326" fill="#FFFFFF"></path>
                <ellipse id="Oval-12-Copy-8" fill="#59C9C3" opacity="0.200000003" cx="281.975207" cy="254.87234" rx="20.2727273" ry="7.37588652"></ellipse>
                <ellipse id="Oval-12-Copy-9" fill="#59C9C3" opacity="0.200000003" cx="156.652893" cy="254.87234" rx="20.2727273" ry="7.37588652"></ellipse>
                <path d="M146.971631,158 L296.226716,158 C309.465882,158 320.198347,168.732465 320.198347,181.971631 L320.198347,217.007092 C320.198347,230.246259 309.465882,240.978723 296.226716,240.978723 L244.134465,240.978723 C240.204185,240.978723 236.334192,240.012351 232.865285,238.164707 L230.462446,236.884884 C225.61316,234.302008 219.842674,234.10403 214.827768,236.348476 L209.155086,238.887313 C206.07451,240.26604 202.737516,240.978723 199.362485,240.978723 L146.971631,240.978723 C133.732465,240.978723 123,230.246259 123,217.007092 L123,181.971631 C123,168.732465 133.732465,158 146.971631,158 Z" id="Rectangle-40" stroke="#59C9C3" stroke-width="3.68794326" fill="#FFFFFF"></path>
                <ellipse id="Oval-11-Copy-23" stroke="#59C9C3" stroke-width="3.68794326" fill="#59C9C3" cx="271.838843" cy="205.070922" rx="17.5082645" ry="17.5177305"></ellipse>
                <ellipse id="Oval-11-Copy-59" stroke="#59C9C3" stroke-width="3.68794326" fill="#59C9C3" cx="222.078512" cy="264.078014" rx="17.5082645" ry="17.5177305"></ellipse>
                <ellipse id="Oval-11-Copy-44" stroke="#59C9C3" stroke-width="3.68794326" fill="#59C9C3" cx="174.161157" cy="205.070922" rx="17.5082645" ry="17.5177305"></ellipse>
                <path d="M147.446984,165.425532 L296.71004,165.425532 C305.875617,165.425532 313.305785,172.8557 313.305785,182.021277 L313.305785,217.056738 C313.305785,226.222314 305.875617,233.652482 296.71004,233.652482 L248.782225,233.652482 C241.918481,233.652482 235.762934,229.427178 233.295713,223.022196 L230.279111,215.191004 C228.624303,210.895072 223.800276,208.754018 219.504344,210.408826 C217.474032,211.190909 215.829976,212.735831 214.923294,214.713645 L210.678752,223.97259 C207.974787,229.870955 202.08129,233.652482 195.592675,233.652482 L147.446984,233.652482 C138.281408,233.652482 130.85124,226.222314 130.85124,217.056738 L130.85124,182.021277 C130.85124,172.8557 138.281408,165.425532 147.446984,165.425532 Z" id="Rectangle-40" stroke="#59C9C3" stroke-width="3.68794326"></path>
                <rect id="Rectangle-41" stroke="#59C9C3" stroke-width="3.68794326" fill="#FFFFFF" x="321" y="192" width="70.0330579" height="15"></rect>
                <rect id="Rectangle-41-Copy" stroke="#59C9C3" stroke-width="3.68794326" fill="#FFFFFF" x="85" y="192" width="37.7024793" height="15"></rect>
                <path d="M251.675169,165.425532 L296.71004,165.425532 C305.875617,165.425532 313.305785,172.8557 313.305785,182.021277 L313.305785,217.056738 C313.305785,226.222314 305.875617,233.652482 296.71004,233.652482 L248.782225,233.652482 C241.918481,233.652482 235.762934,229.427178 233.295713,223.022196 L230.279111,215.191004 C229.232152,212.473067 226.916618,210.617685 224.268845,210.040433 L224.240601,210.086412 C224.12499,210.04389 224.010355,210.004481 223.896688,209.968114 C222.467346,209.723945 220.955707,209.849756 219.504344,210.408826 C218.473143,210.806048 217.541582,211.400057 216.755666,212.147621 C218.55682,210.174113 220.887611,209.005372 223.896688,209.968114 C224.021398,209.989418 224.145482,210.013538 224.268845,210.040433 L251.675169,165.425532 Z M210.353044,165.425532 L168.442161,233.652482 L147.446984,233.652482 C138.281408,233.652482 130.85124,226.222314 130.85124,217.056738 L130.85124,182.021277 C130.85124,172.8557 138.281408,165.425532 147.446984,165.425532 L210.353044,165.425532 Z M190.391119,233.652482 C196.409865,233.652482 200.685141,232.968518 203.864436,231.444156 C206.799822,229.7562 209.209892,227.176727 210.678752,223.97259 L212.314998,220.403321 C212.939863,218.729833 213.810482,216.511888 215.013539,214.523175 C214.982694,214.586205 214.952609,214.649699 214.923294,214.713645 L212.314998,220.403321 C212.17825,220.769555 212.053271,221.109713 211.939154,221.415686 C210.121088,226.290332 207.856934,229.529891 203.864436,231.444156 C201.396186,232.86349 198.556514,233.652482 195.592675,233.652482 L190.391119,233.652482 Z" id="Combined-Shape" fill="#59C9C3" opacity="0.100000001"></path>
                <path d="M57.1154828,402.297878 C56.6307293,415.619095 45.6844937,426.269504 32.2520661,426.269504 C18.8196385,426.269504 7.87340297,415.619095 7.38864945,402.297878 L7.37190083,402.297872 L7.37190083,206.836879 L57.1322314,206.836879 L57.1322314,402.297872 L57.115483,402.297872 Z" id="Combined-Shape" stroke="#59C9C3" stroke-width="3.68794326" fill="#FFFFFF"></path>
                <rect id="Rectangle-44" stroke="#59C9C3" stroke-width="3.68794326" fill-opacity="0.1" fill="#59C9C3" x="15" y="207" width="35" height="66"></rect>
                <path d="M49.7364971,402.326152 C49.2573117,411.572347 41.6125148,418.921897 32.2520661,418.921897 C22.8916174,418.921897 15.2468206,411.572347 14.7676351,402.326152 L14.7438017,402.326152 L14.7438017,264.02828 C17.5619338,261.334676 21.4490476,260.105361 26.4051431,260.340337 C33.8392864,260.6928 36.3925691,267.129959 41.2713251,267.129959 C44.523829,267.129959 47.3534975,266.096066 49.7603306,264.02828 L49.7603306,402.326152 L49.7364971,402.326152 Z" id="Combined-Shape" stroke="#59C9C3" stroke-width="3.68794326" fill="#FFFFFF"></path>
                <path d="M58.1130439,333.7815 C66.2558207,333.7815 75.4111576,325.722177 72.8568456,319.029727 C70.3025336,312.337277 58.890552,297.940431 51.5215465,295.644177 C44.152541,293.347924 41.2902835,302.044701 39.6113967,304.996599" id="Oval-14-Copy-2" stroke="#59C9C3" stroke-width="3.68794326" fill="#FFFFFF" transform="translate(56.452156, 314.522077) scale(1, -1) rotate(-142.000000) translate(-56.452156, -314.522077) "></path>
                <path d="M52.8772958,192.450969 C52.7524877,166.564227 118.465181,191.465538 118.465181,162.172491 C118.465181,132.879444 79.7007984,152.076545 80.4218734,131.321279 C81.1429484,110.566012 187.143973,140.170084 187.49829,98.4283447 C187.852607,56.6866054 93.0685748,83.7637884 92.1083027,62.1958402 C90.7975108,32.7551319 166.268896,67.9266304 163.552909,21.1538494 C162.419422,1.63374257 133.768466,-4.23101844 77.6000402,3.55956637 C109.026901,4.76008214 124.740331,9.06663609 124.740331,16.4792282 C124.740331,51.6164988 18.8214923,3.29240656 18.6871064,55.8580037 C18.576652,99.0627071 119.997143,71.3445015 120.689603,92.8648266 C121.382063,114.385152 6.50177126,82.0044721 5.28786327,122.211195 C4.2338454,157.122083 75.142356,133.746645 75.3944734,154.172491 C75.6465907,174.598337 13.5200043,143.038365 13.3309939,192.450969 C39.7138987,196.330305 52.8959993,196.330305 52.8772958,192.450969 Z" id="Path-5" stroke="#59C9C3" stroke-width="3.68794326" fill="#EEF9F9"></path>
                <rect id="Rectangle-39-Copy" stroke="#59C9C3" stroke-width="3.68794326" fill="#FFFFFF" x="0" y="192" width="64.5041322" height="15"></rect>
                <ellipse id="Oval-11-Copy-12" stroke="#59C9C3" stroke-width="3.68794326" fill-opacity="0.1" fill="#59C9C3" cx="26.7231405" cy="297.269504" rx="4.60743802" ry="4.60992908"></ellipse>
                <ellipse id="Oval-11-Copy-60" stroke="#59C9C3" stroke-width="3.68794326" fill-opacity="0.1" fill="#59C9C3" cx="37.7809917" cy="345.212766" rx="4.60743802" ry="4.60992908"></ellipse>
                <ellipse id="Oval-11-Copy-61" stroke="#59C9C3" stroke-width="3.68794326" fill-opacity="0.1" fill="#59C9C3" cx="32.2520661" cy="369.184397" rx="4.60743802" ry="4.60992908"></ellipse>
                <path d="M170.5,233.5 L212.5,164.5" id="Line-2" stroke="#59C9C3" stroke-width="3.68794326"></path>
                <path d="M226.5,210.5 L253.5,164.5" id="Line-2-Copy" stroke="#59C9C3" stroke-width="3.68794326"></path>
            </g>
        </g>
    </g>
</svg>